<svg xmlns="http://www.w3.org/2000/svg" xmlns:xlink="http://www.w3.org/1999/xlink" width="1400" zoomAndPan="magnify" viewBox="0 0 1050 266.250005" height="355" preserveAspectRatio="xMidYMid meet" version="1.0"><defs><filter x="0%" y="0%" width="100%" height="100%" id="cc0753e14b"><feColorMatrix values="0 0 0 0 1 0 0 0 0 1 0 0 0 0 1 0 0 0 1 0" color-interpolation-filters="sRGB"/></filter><clipPath id="73843216b2"><path d="M 1.476562 0 L 1048.523438 0 L 1048.523438 265.503906 L 1.476562 265.503906 Z M 1.476562 0 " clip-rule="nonzero"/></clipPath><clipPath id="7b0f261bdb"><path d="M 1.476562 0 L 353 0 L 353 265.503906 L 1.476562 265.503906 Z M 1.476562 0 " clip-rule="nonzero"/></clipPath><mask id="c3e45d560a"><g filter="url(#cc0753e14b)"><rect x="-105" width="1260" fill="#000000" y="-26.625001" height="319.500006" fill-opacity="0.498"/></g></mask><clipPath id="31ebe63634"><path d="M 0.476562 10 L 316 10 L 316 198 L 0.476562 198 Z M 0.476562 10 " clip-rule="nonzero"/></clipPath><clipPath id="bd2701501e"><path d="M 235.292969 306.269531 L -76.371094 129.628906 L 40.898438 -77.28125 L 352.5625 99.359375 Z M 235.292969 306.269531 " clip-rule="nonzero"/></clipPath><clipPath id="dc7aa2b632"><path d="M 235.292969 306.269531 L -76.371094 129.628906 L 40.898438 -77.28125 L 352.5625 99.359375 Z M 235.292969 306.269531 " clip-rule="nonzero"/></clipPath><clipPath id="b080fd6835"><rect x="0" width="352" y="0" height="266"/></clipPath><clipPath id="ccd57a199e"><path d="M 749 0 L 1048.523438 0 L 1048.523438 239 L 749 239 Z M 749 0 " clip-rule="nonzero"/></clipPath><mask id="1d5f0ff81e"><g filter="url(#cc0753e14b)"><rect x="-105" width="1260" fill="#000000" y="-26.625001" height="319.500006" fill-opacity="0.498"/></g></mask><clipPath id="283e0151f7"><path d="M 1 0 L 299.523438 0 L 299.523438 238 L 1 238 Z M 1 0 " clip-rule="nonzero"/></clipPath><clipPath id="b210bdc198"><rect x="0" width="300" y="0" height="239"/></clipPath></defs><g clip-path="url(#73843216b2)"><path fill="#ffffff" d="M 1.476562 0 L 1048.523438 0 L 1048.523438 272.980469 L 1.476562 272.980469 Z M 1.476562 0 " fill-opacity="1" fill-rule="nonzero"/><path fill="#ffffff" d="M 1.476562 0 L 1048.523438 0 L 1048.523438 265.503906 L 1.476562 265.503906 Z M 1.476562 0 " fill-opacity="1" fill-rule="nonzero"/><path fill="#edf2f7" d="M 1.476562 0 L 1048.523438 0 L 1048.523438 265.503906 L 1.476562 265.503906 Z M 1.476562 0 " fill-opacity="1" fill-rule="nonzero"/></g><g clip-path="url(#7b0f261bdb)"><g mask="url(#c3e45d560a)"><g transform="matrix(1, 0, 0, 1, 1, -0.00000000000000942)"><g clip-path="url(#b080fd6835)"><g clip-path="url(#31ebe63634)"><g clip-path="url(#bd2701501e)"><g clip-path="url(#dc7aa2b632)"><path fill="#22fe14" d="M 224.625 182.441406 C 219.023438 179.359375 213.691406 175.796875 208.699219 171.800781 C 200.949219 165.699219 192.332031 160.816406 183.160156 157.234375 C 174.664062 154.039062 165.84375 152.363281 156.890625 151.238281 C 150.363281 150.414062 144.632812 152.464844 139.511719 156.121094 C 133.011719 160.789062 126.746094 165.679688 120.507812 170.675781 C 114.816406 175.179688 109.558594 180.191406 103.285156 183.820312 C 94.589844 189.042969 84.6875 191.964844 74.539062 192.320312 C 67.085938 192.496094 59.695312 192.886719 52.203125 193.132812 C 46.816406 193.3125 41.566406 192.136719 36.480469 190.511719 C 24.046875 186.515625 13.054688 180.289062 3.769531 170.890625 C -7.175781 159.839844 -17.164062 147.890625 -26.128906 135.082031 C -32.753906 125.582031 -36.800781 114.84375 -39.914062 103.738281 C -41.691406 97.699219 -42.726562 91.457031 -42.914062 85.152344 C -43.097656 78.042969 -41.675781 70.945312 -38.574219 64.527344 C -35.273438 57.59375 -31.742188 50.886719 -26.113281 45.542969 C -15.1875 35.117188 -2.320312 29.027344 12.941406 29.773438 C 18.730469 30 24.566406 31.242188 30.261719 32.582031 C 42.859375 35.5 55.808594 36.375 68.695312 35.144531 C 78.417969 34.277344 87.691406 31.359375 96.945312 28.160156 C 107.019531 24.621094 116.96875 20.828125 127.1875 17.816406 C 141.914062 13.5 156.984375 10.632812 172.382812 10.828125 C 181.179688 10.960938 189.832031 11.824219 198.09375 14.800781 C 212.460938 19.980469 223.332031 29.105469 229.136719 43.535156 C 232.449219 51.609375 235.335938 59.800781 238.472656 67.867188 C 241.230469 75.175781 244.027344 82.421875 248.503906 88.910156 C 253.421875 96.367188 260.230469 102.382812 268.15625 106.425781 C 274.183594 109.394531 280.363281 112.089844 286.402344 114.878906 C 293.117188 118.058594 299.5625 121.710938 305.128906 126.753906 C 315.070312 135.621094 317.769531 146.671875 314.792969 159.355469 C 311.980469 170.964844 305.046875 179.878906 295.957031 187.214844 C 291.507812 190.796875 286.5 193.621094 281.195312 195.550781 C 273.894531 198.152344 266.539062 197.84375 259.074219 196.308594 C 250.8125 194.589844 243.121094 191.398438 235.59375 187.761719 Z M 224.625 182.441406 " fill-opacity="1" fill-rule="nonzero"/></g></g></g></g></g></g></g><g clip-path="url(#ccd57a199e)"><g mask="url(#1d5f0ff81e)"><g transform="matrix(1, 0, 0, 1, 749, -0.00000000000000942)"><g clip-path="url(#b210bdc198)"><g clip-path="url(#283e0151f7)"><path fill="#4d2493" d="M 73.378906 97.519531 C 80.082031 97.4375 86.785156 97.929688 93.402344 98.992188 C 103.617188 100.546875 113.996094 100.546875 124.214844 99.074219 C 133.613281 97.601562 142.519531 94.574219 151.265625 90.976562 C 157.636719 88.355469 161.804688 83.527344 164.585938 77.554688 C 168.097656 69.945312 171.285156 62.253906 174.390625 54.480469 C 177.253906 47.441406 179.457031 40.160156 183.300781 33.613281 C 188.53125 24.367188 196.050781 16.589844 205.121094 11.027344 C 211.820312 7.019531 218.359375 2.84375 225.0625 -1.246094 C 229.882812 -4.191406 235.277344 -5.828125 240.753906 -6.976562 C 254.15625 -9.757812 267.394531 -9.757812 280.714844 -5.992188 C 296.40625 -1.574219 311.6875 4.152344 326.480469 11.191406 C 337.433594 16.429688 346.667969 24.121094 355.25 32.628906 C 359.988281 37.210938 364.15625 42.367188 367.589844 48.015625 C 371.429688 54.398438 373.800781 61.597656 374.289062 69.042969 C 374.863281 77.0625 375.109375 85 372.738281 92.773438 C 368.160156 107.914062 359.578125 120.105469 345.277344 127.308594 C 339.882812 130.089844 333.917969 131.972656 328.035156 133.691406 C 315.039062 137.535156 302.78125 143.425781 291.667969 151.199219 C 283.25 157.011719 276.300781 164.457031 269.519531 172.148438 C 262.164062 180.578125 255.054688 189.171875 247.289062 197.1875 C 236.09375 208.726562 223.835938 219.121094 209.695312 226.894531 C 201.605469 231.3125 193.269531 234.996094 184.199219 236.550781 C 168.425781 239.25 153.796875 236.550781 141.046875 226.402344 C 133.855469 220.757812 126.992188 214.78125 119.964844 209.054688 C 113.671875 203.816406 107.378906 198.664062 99.941406 195.0625 C 91.605469 190.804688 82.289062 188.84375 72.972656 189.25 C 65.945312 189.660156 58.914062 190.398438 51.96875 190.96875 C 44.203125 191.542969 36.441406 191.542969 28.757812 189.824219 C 15.109375 186.878906 6.9375 178.203125 3.097656 165.113281 C -0.335938 153.082031 1.382812 141.382812 5.875 130.007812 C 8.082031 124.441406 11.1875 119.289062 15.027344 114.785156 C 20.339844 108.648438 27.207031 105.132812 34.804688 102.675781 C 43.222656 99.976562 51.886719 98.910156 60.632812 98.339844 Z M 73.378906 97.519531 " fill-opacity="1" fill-rule="nonzero"/></g></g></g></g></g></svg>