<svg xmlns="http://www.w3.org/2000/svg" xmlns:xlink="http://www.w3.org/1999/xlink" width="1400" zoomAndPan="magnify" viewBox="0 0 1050 266.250005" height="355" preserveAspectRatio="xMidYMid meet" version="1.0"><defs><filter x="0%" y="0%" width="100%" height="100%" id="b1b58f1ed3"><feColorMatrix values="0 0 0 0 1 0 0 0 0 1 0 0 0 0 1 0 0 0 1 0" color-interpolation-filters="sRGB"/></filter><clipPath id="92c6b78716"><path d="M 1.476562 0 L 1048.523438 0 L 1048.523438 265.503906 L 1.476562 265.503906 Z M 1.476562 0 " clip-rule="nonzero"/></clipPath><clipPath id="0abbd0c2fb"><path d="M 1.476562 0 L 353 0 L 353 265.503906 L 1.476562 265.503906 Z M 1.476562 0 " clip-rule="nonzero"/></clipPath><mask id="e59bdc4957"><g filter="url(#b1b58f1ed3)"><rect x="-105" width="1260" fill="#000000" y="-26.625001" height="319.500006" fill-opacity="0.498"/></g></mask><clipPath id="c49cd2e84e"><path d="M 0.476562 10 L 316 10 L 316 198 L 0.476562 198 Z M 0.476562 10 " clip-rule="nonzero"/></clipPath><clipPath id="7d94017cac"><path d="M 235.292969 306.269531 L -76.371094 129.628906 L 40.898438 -77.28125 L 352.5625 99.359375 Z M 235.292969 306.269531 " clip-rule="nonzero"/></clipPath><clipPath id="801873c2e5"><path d="M 235.292969 306.269531 L -76.371094 129.628906 L 40.898438 -77.28125 L 352.5625 99.359375 Z M 235.292969 306.269531 " clip-rule="nonzero"/></clipPath><clipPath id="4ae7a271d5"><rect x="0" width="352" y="0" height="266"/></clipPath><clipPath id="262b89f902"><path d="M 731 0 L 1048.523438 0 L 1048.523438 239 L 731 239 Z M 731 0 " clip-rule="nonzero"/></clipPath><mask id="6949a26ff0"><g filter="url(#b1b58f1ed3)"><rect x="-105" width="1260" fill="#000000" y="-26.625001" height="319.500006" fill-opacity="0.498"/></g></mask><clipPath id="b223ba0e52"><path d="M 1 0 L 317.523438 0 L 317.523438 238 L 1 238 Z M 1 0 " clip-rule="nonzero"/></clipPath><clipPath id="2cc8a41b6d"><rect x="0" width="318" y="0" height="239"/></clipPath></defs><g clip-path="url(#92c6b78716)"><path fill="#ffffff" d="M 1.476562 0 L 1048.523438 0 L 1048.523438 272.980469 L 1.476562 272.980469 Z M 1.476562 0 " fill-opacity="1" fill-rule="nonzero"/><path fill="#ffffff" d="M 1.476562 0 L 1048.523438 0 L 1048.523438 265.503906 L 1.476562 265.503906 Z M 1.476562 0 " fill-opacity="1" fill-rule="nonzero"/><path fill="#ffffff" d="M 1.476562 0 L 1048.523438 0 L 1048.523438 265.503906 L 1.476562 265.503906 Z M 1.476562 0 " fill-opacity="1" fill-rule="nonzero"/></g><g clip-path="url(#0abbd0c2fb)"><g mask="url(#e59bdc4957)"><g transform="matrix(1, 0, 0, 1, 1, -0.00000000000000942)"><g clip-path="url(#4ae7a271d5)"><g clip-path="url(#c49cd2e84e)"><g clip-path="url(#7d94017cac)"><g clip-path="url(#801873c2e5)"><path fill="#22fe14" d="M 224.625 182.441406 C 219.023438 179.359375 213.691406 175.796875 208.699219 171.800781 C 200.949219 165.699219 192.332031 160.816406 183.160156 157.234375 C 174.664062 154.039062 165.84375 152.363281 156.890625 151.238281 C 150.363281 150.414062 144.632812 152.464844 139.511719 156.121094 C 133.011719 160.789062 126.746094 165.679688 120.507812 170.675781 C 114.816406 175.179688 109.558594 180.191406 103.285156 183.820312 C 94.589844 189.042969 84.6875 191.964844 74.539062 192.320312 C 67.085938 192.496094 59.695312 192.886719 52.203125 193.132812 C 46.816406 193.3125 41.566406 192.136719 36.480469 190.511719 C 24.046875 186.515625 13.054688 180.289062 3.769531 170.890625 C -7.175781 159.839844 -17.164062 147.890625 -26.128906 135.082031 C -32.753906 125.582031 -36.800781 114.84375 -39.914062 103.738281 C -41.691406 97.699219 -42.726562 91.457031 -42.914062 85.152344 C -43.097656 78.042969 -41.675781 70.945312 -38.574219 64.527344 C -35.273438 57.59375 -31.742188 50.886719 -26.113281 45.542969 C -15.1875 35.117188 -2.320312 29.027344 12.941406 29.773438 C 18.730469 30 24.566406 31.242188 30.261719 32.582031 C 42.859375 35.5 55.808594 36.375 68.695312 35.144531 C 78.417969 34.277344 87.691406 31.359375 96.945312 28.160156 C 107.019531 24.621094 116.96875 20.828125 127.1875 17.816406 C 141.914062 13.5 156.984375 10.632812 172.382812 10.828125 C 181.179688 10.960938 189.832031 11.824219 198.09375 14.800781 C 212.460938 19.980469 223.332031 29.105469 229.136719 43.535156 C 232.449219 51.609375 235.335938 59.800781 238.472656 67.867188 C 241.230469 75.175781 244.027344 82.421875 248.503906 88.910156 C 253.421875 96.367188 260.230469 102.382812 268.15625 106.425781 C 274.183594 109.394531 280.363281 112.089844 286.402344 114.878906 C 293.117188 118.058594 299.5625 121.710938 305.128906 126.753906 C 315.070312 135.621094 317.769531 146.671875 314.792969 159.355469 C 311.980469 170.964844 305.046875 179.878906 295.957031 187.214844 C 291.507812 190.796875 286.5 193.621094 281.195312 195.550781 C 273.894531 198.152344 266.539062 197.84375 259.074219 196.308594 C 250.8125 194.589844 243.121094 191.398438 235.59375 187.761719 Z M 224.625 182.441406 " fill-opacity="1" fill-rule="nonzero"/></g></g></g></g></g></g></g><g clip-path="url(#262b89f902)"><g mask="url(#6949a26ff0)"><g transform="matrix(1, 0, 0, 1, 731, -0.00000000000000942)"><g clip-path="url(#2cc8a41b6d)"><g clip-path="url(#b223ba0e52)"><path fill="#4d2493" d="M 73.867188 97.519531 C 80.570312 97.4375 87.269531 97.929688 93.890625 98.992188 C 104.105469 100.546875 114.484375 100.546875 124.699219 99.074219 C 134.097656 97.601562 143.007812 94.574219 151.75 90.976562 C 158.125 88.355469 162.292969 83.527344 165.074219 77.554688 C 168.585938 69.945312 171.773438 62.253906 174.878906 54.480469 C 177.738281 47.441406 179.945312 40.160156 183.789062 33.613281 C 189.019531 24.367188 196.535156 16.589844 205.609375 11.027344 C 212.308594 7.019531 218.847656 2.84375 225.550781 -1.246094 C 230.371094 -4.191406 235.765625 -5.828125 241.238281 -6.976562 C 254.644531 -9.757812 267.882812 -9.757812 281.203125 -5.992188 C 296.894531 -1.574219 312.175781 4.152344 326.96875 11.191406 C 337.921875 16.429688 347.15625 24.121094 355.734375 32.628906 C 360.476562 37.210938 364.644531 42.367188 368.078125 48.015625 C 371.917969 54.398438 374.289062 61.597656 374.777344 69.042969 C 375.351562 77.0625 375.59375 85 373.226562 92.773438 C 368.648438 107.914062 360.066406 120.105469 345.765625 127.308594 C 340.371094 130.089844 334.40625 131.972656 328.523438 133.691406 C 315.527344 137.535156 303.269531 143.425781 292.15625 151.199219 C 283.738281 157.011719 276.789062 164.457031 270.007812 172.148438 C 262.652344 180.578125 255.542969 189.171875 247.777344 197.1875 C 236.582031 208.726562 224.324219 219.121094 210.183594 226.894531 C 202.09375 231.3125 193.757812 234.996094 184.6875 236.550781 C 168.914062 239.25 154.285156 236.550781 141.535156 226.402344 C 134.34375 220.757812 127.480469 214.78125 120.453125 209.054688 C 114.160156 203.816406 107.867188 198.664062 100.429688 195.0625 C 92.09375 190.804688 82.777344 188.84375 73.460938 189.25 C 66.429688 189.660156 59.402344 190.398438 52.457031 190.96875 C 44.691406 191.542969 36.929688 191.542969 29.246094 189.824219 C 15.597656 186.878906 7.425781 178.203125 3.585938 165.113281 C 0.152344 153.082031 1.867188 141.382812 6.363281 130.007812 C 8.570312 124.441406 11.675781 119.289062 15.515625 114.785156 C 20.828125 108.648438 27.695312 105.132812 35.292969 102.675781 C 43.710938 99.976562 52.375 98.910156 61.121094 98.339844 Z M 73.867188 97.519531 " fill-opacity="1" fill-rule="nonzero"/></g></g></g></g></g></svg>