<?xml version="1.0" encoding="UTF-8"?>
<svg id="Layer_1" data-name="Layer 1" xmlns="http://www.w3.org/2000/svg" viewBox="0 0 40 40">
  <defs>
    <style>
      .cls-1 {
        fill: #e7f6fd;
      }

      .cls-2 {
        fill: #fff;
      }

      .cls-3 {
        fill: #ff3de3;
      }

      .cls-4, .cls-5 {
        fill: #272428;
      }

      .cls-5 {
        stroke: #000;
        stroke-miterlimit: 10;
        stroke-width: .5px;
      }
    </style>
  </defs>
  <g>
    <g>
      <path class="cls-1" d="M26.22,32.94l-2.5-12.01c-.11-.6-.08-1.22,.11-1.81l2.87-9.07-2.36-.25-2.39-.6-2.79,8.83c-.18,.58-.51,1.11-.94,1.55l-8.93,8.83c-.68,.69-.33,1.77,.63,2.02l7.2,2.14,7.34,1.84c1,.26,1.95-.54,1.77-1.47h0Z"/>
      <path class="cls-5" d="M24.43,34.4l-14.67-3.68c-.54-.14-.95-.51-1.11-.99-.16-.49-.02-1,.36-1.39l9.15-9.06c.42-.43,.74-.96,.92-1.52l2.93-9.25,4.99,1.25-2.92,9.23c-.18,.55-.21,1.15-.1,1.73l2.5,11.97c.09,.5-.09,1.01-.51,1.35-.42,.35-.99,.47-1.53,.34Zm-2.12-25.46l-2.82,8.91c-.19,.61-.55,1.2-1.02,1.67l-9.2,9.11c-.27,.28-.37,.66-.26,1.03,.11,.36,.42,.64,.82,.74l14.75,3.69c.4,.1,.82,0,1.13-.25,.31-.25,.45-.63,.38-1l-2.51-12.03c-.12-.63-.08-1.3,.11-1.91l2.82-8.91-4.19-1.05h0Z"/>
    </g>
    <path class="cls-3" d="M24.61,32.28l-1.34-6.59-7.3-1.87-5.06,4.95c-.15,.16-.21,.36-.14,.56,.07,.2,.23,.35,.45,.4l12.55,3.22c.22,.06,.44,0,.62-.13s.25-.34,.21-.54Z"/>
    <g>
      <path class="cls-1" d="M26.85,9.41l-4.47-1.12c-.47-.12-.97,.14-1.1,.57h0c-.14,.43,.14,.87,.61,.99l4.47,1.12c.47,.12,.97-.14,1.1-.57h0c.14-.43-.14-.87-.61-.99Z"/>
      <path class="cls-4" d="M26.63,11.2l-5.13-1.29c-.66-.16-1.04-.79-.85-1.39s.88-.96,1.54-.79l5.13,1.29c.66,.16,1.04,.79,.85,1.39s-.89,.96-1.54,.79Zm-4.35-2.78c-.37-.09-.77,.11-.88,.45s.11,.7,.49,.8l4.58,1.15c.37,.09,.77-.11,.88-.45s-.11-.7-.49-.8c0,0-4.58-1.15-4.58-1.15Z"/>
    </g>
  </g>
  <ellipse class="cls-1" cx="19.43" cy="27.35" rx=".55" ry=".61" transform="translate(-12.08 38.87) rotate(-74.7)"/>
  <ellipse class="cls-2" cx="20.28" cy="29.73" rx=".52" ry=".57" transform="translate(-13.75 41.45) rotate(-74.7)"/>
  <ellipse class="cls-1" cx="15.25" cy="27.65" rx="1.26" ry="1.38" transform="translate(-15.45 35.06) rotate(-74.7)"/>
  <ellipse class="cls-2" cx="17.77" cy="29.62" rx=".43" ry=".48" transform="translate(-15.49 38.94) rotate(-74.7)"/>
  <ellipse class="cls-1" cx="17.68" cy="25.31" rx=".65" ry=".71" transform="translate(-11.4 35.69) rotate(-74.7)"/>
  <path d="M21.51,11.95v-.05c.03-.07,.11-.12,.18-.1l.99,.27c.07,.02,.12,.1,.1,.17v.05c-.03,.07-.11,.12-.18,.1l-.99-.27c-.07-.02-.12-.1-.1-.17Z"/>
  <path d="M21.25,12.89v-.05c.03-.07,.11-.12,.18-.1l.99,.27c.07,.02,.12,.1,.1,.17v.05c-.03,.07-.11,.12-.18,.1l-.99-.27c-.07-.02-.12-.1-.1-.17h0Z"/>
  <path d="M21,13.84v-.05c.03-.07,.11-.12,.18-.1l.99,.27c.07,.02,.12,.1,.1,.17v.05c-.03,.07-.11,.12-.18,.1l-.99-.27c-.07-.02-.12-.1-.1-.17Z"/>
  <path d="M20.75,14.79v-.05c.03-.07,.11-.12,.18-.1l.99,.27c.07,.02,.12,.1,.1,.17v.05c-.03,.07-.11,.12-.18,.1l-.99-.27c-.07-.02-.12-.1-.1-.17Z"/>
  <path class="cls-3" d="M27.2,7.65c0,.14-.06,.29-.16,.39-.1,.1-.24,.16-.39,.16s-.28-.06-.39-.16-.16-.24-.16-.39,.06-.29,.16-.39c.1-.1,.24-.16,.39-.16s.28,.06,.39,.16c.1,.1,.16,.24,.16,.39Zm-3.09-2.32c0,.23-.09,.45-.25,.62s-.38,.25-.61,.25-.45-.09-.61-.25c-.16-.16-.25-.39-.25-.62s.09-.45,.25-.62c.16-.16,.39-.25,.61-.25s.45,.09,.61,.25c.16,.16,.25,.39,.25,.61h0Zm-.41-.51h0c-.11-.14-.27-.22-.44-.22-.08,0-.15,.07-.15,.15s.07,.15,.15,.15,.16,.04,.21,.1c.03,.04,.07,.06,.12,.06,.04,0,.07-.01,.09-.03,.03-.03,.05-.06,.06-.1s0-.08-.03-.11h0Zm2.44,1.46h0c0,.18-.07,.35-.2,.48-.13,.13-.3,.2-.47,.2s-.35-.07-.47-.2c-.13-.13-.2-.3-.2-.48s.07-.35,.2-.48,.3-.2,.48-.2,.35,.07,.47,.2c.13,.13,.2,.3,.2,.47h0Zm-.35-.18h0c-.07-.11-.19-.18-.32-.18-.08,0-.15,.07-.15,.15s.07,.15,.15,.15c.03,0,.05,.01,.06,.04,.03,.05,.08,.07,.13,.07,.03,0,.05,0,.07-.02,.07-.04,.1-.14,.05-.21h0Zm1.87,.74h0s-.09,.02-.12,.05-.05,.08-.05,.12,.02,.09,.05,.13c.03,.03,.08,.05,.12,.05s.09-.02,.12-.05,.05-.08,.05-.12-.02-.09-.05-.13-.08-.05-.12-.05h0Zm-1.75-1.7s.07-.02,.09-.06c.01-.04,0-.08-.02-.11-.03-.03-.07-.04-.11-.02-.04,.01-.06,.05-.06,.09,0,.05,.04,.1,.1,.1h0Zm-.57-.19c.06,0,.12-.04,.14-.09,.02-.06,.01-.12-.03-.17-.04-.04-.11-.06-.17-.03s-.09,.08-.09,.14c0,.04,.02,.08,.04,.11s.07,.04,.11,.04h0Zm.12,2.44c-.05,0-.1,.03-.12,.08s0,.1,.03,.14c.04,.04,.09,.05,.14,.03s.08-.07,.08-.12c0-.03-.01-.07-.04-.09-.02-.02-.06-.04-.09-.04h0Z"/>
  <path class="cls-3" d="M19.32,22.06c0,.17-.07,.33-.18,.45-.12,.12-.28,.19-.45,.19s-.33-.07-.45-.18-.19-.28-.19-.45,.07-.33,.18-.45c.12-.12,.28-.19,.45-.19s.33,.07,.45,.18c.12,.12,.19,.28,.19,.45Zm2.66-1.15c0,.22-.1,.43-.26,.58s-.37,.23-.59,.22-.42-.1-.58-.26c-.15-.16-.23-.37-.22-.59,0-.22,.1-.43,.26-.58s.37-.23,.59-.22,.42,.1,.57,.26,.23,.37,.22,.59h0Zm-.37-.49h0c-.1-.13-.25-.21-.41-.22-.08,0-.14,.06-.14,.14,0,.08,.06,.14,.14,.15,.08,0,.15,.04,.2,.1,.03,.04,.07,.06,.11,.06,.03,0,.06,0,.09-.03,.03-.02,.05-.06,.06-.09s0-.07-.03-.11h0Zm-.26,3.22h0c.06,.06,.09,.13,.09,.21s-.03,.16-.09,.21-.13,.09-.21,.09c-.08,0-.15-.03-.21-.09s-.09-.13-.09-.21,.03-.16,.09-.21c.06-.06,.13-.09,.21-.09s.15,.03,.21,.09h0Zm-.17,.05h0c-.06-.01-.12,0-.16,.04-.03,.03-.03,.07,0,.1s.07,.03,.09,0c0,0,.02,0,.03,0,.02,0,.05,0,.06-.02,0,0,.01-.02,.02-.03,0-.04-.01-.07-.05-.08h0Zm1.07-.89h0s-.06,.09-.06,.14,.02,.11,.06,.14,.09,.06,.14,.06,.11-.02,.14-.06,.06-.09,.06-.14-.02-.11-.06-.14-.09-.06-.14-.06-.11,.02-.14,.06h0Zm-1.69,.42s.04-.08,.02-.12c-.02-.04-.06-.07-.1-.07s-.09,.03-.1,.07,0,.09,.02,.12c.04,.04,.11,.04,.16,0h0Zm-.63,.31c.05-.05,.07-.13,.04-.19-.03-.07-.09-.11-.16-.11s-.14,.04-.16,.11c-.03,.07-.01,.14,.04,.19,.03,.03,.08,.05,.13,.05s.09-.02,.13-.05h0Zm2.1,1.14s-.05,.11-.03,.16,.08,.09,.14,.09,.11-.04,.14-.09,0-.12-.03-.16c-.03-.03-.07-.04-.11-.04s-.08,.02-.11,.04h0Z"/>
</svg>