<?xml version="1.0" encoding="UTF-8"?>
<svg id="Layer_1" data-name="Layer 1" xmlns="http://www.w3.org/2000/svg" viewBox="0 0 58.47 86.63">
  <defs>
    <style>
      .cls-1 {
        fill: #e7f6fd;
      }

      .cls-2 {
        fill: #fff;
      }

      .cls-3 {
        fill: #ff3de3;
      }

      .cls-4, .cls-5 {
        fill: #272428;
      }

      .cls-5 {
        stroke: #000;
        stroke-miterlimit: 10;
        stroke-width: .5px;
      }
    </style>
  </defs>
  <g>
    <g>
      <path class="cls-1" d="M51.53,82.1l-7.18-34.42c-.33-1.72-.22-3.5,.32-5.2l8.23-26.01-6.76-.73-6.86-1.72-8.01,25.3c-.52,1.66-1.45,3.18-2.71,4.46L2.94,69.11c-1.94,1.98-.95,5.09,1.82,5.78l20.65,6.15,21.03,5.27c2.86,.74,5.59-1.54,5.08-4.2h0Z"/>
      <path class="cls-5" d="M46.39,86.3L4.33,75.76c-1.54-.39-2.73-1.45-3.18-2.84-.46-1.39-.05-2.88,1.02-3.97l26.24-25.96c1.21-1.24,2.12-2.75,2.63-4.34l8.39-26.51,14.31,3.59-8.38,26.47c-.5,1.59-.61,3.3-.29,4.95l7.17,34.31c.27,1.43-.26,2.89-1.47,3.88-1.21,1-2.84,1.36-4.38,.97ZM40.31,13.32l-8.08,25.54c-.56,1.76-1.58,3.44-2.93,4.8L2.92,69.76c-.78,.8-1.07,1.9-.74,2.96,.33,1.03,1.19,1.82,2.34,2.11l42.28,10.59c1.15,.29,2.35,.01,3.24-.72,.88-.73,1.3-1.8,1.08-2.88l-7.21-34.49c-.35-1.82-.23-3.71,.33-5.48l8.08-25.54-12.01-3.01h0Z"/>
    </g>
    <path class="cls-3" d="M46.91,80.23l-3.83-18.9-20.91-5.36-14.5,14.2c-.44,.46-.6,1.04-.42,1.62,.19,.58,.65,1,1.28,1.16l35.99,9.22c.63,.16,1.27,.03,1.78-.38s.72-.97,.61-1.56Z"/>
    <g>
      <path class="cls-1" d="M53.34,14.66l-12.8-3.2c-1.35-.34-2.77,.39-3.16,1.62h0c-.39,1.23,.4,2.51,1.74,2.85l12.8,3.2c1.35,.34,2.77-.39,3.16-1.62h0c.4-1.25-.4-2.51-1.74-2.85Z"/>
      <path class="cls-4" d="M52.71,19.81l-14.71-3.69c-1.88-.47-2.99-2.25-2.44-4,.55-1.74,2.52-2.75,4.42-2.27l14.71,3.69c1.88,.47,2.99,2.25,2.44,4s-2.54,2.75-4.42,2.27Zm-12.48-7.96c-1.07-.27-2.21,.31-2.52,1.29-.31,.99,.31,2,1.39,2.28l13.13,3.29c1.07,.27,2.21-.31,2.52-1.29,.31-.99-.31-2-1.39-2.28,0,0-13.13-3.29-13.13-3.29Z"/>
    </g>
  </g>
  <ellipse class="cls-1" cx="32.06" cy="66.09" rx="1.59" ry="1.75" transform="translate(-40.14 79.57) rotate(-74.7)"/>
  <ellipse class="cls-2" cx="34.49" cy="72.91" rx="1.48" ry="1.63" transform="translate(-44.93 86.94) rotate(-74.7)"/>
  <ellipse class="cls-1" cx="20.06" cy="66.96" rx="3.6" ry="3.96" transform="translate(-49.82 68.64) rotate(-74.7)"/>
  <ellipse class="cls-2" cx="27.28" cy="72.59" rx="1.25" ry="1.37" transform="translate(-49.93 79.75) rotate(-74.7)"/>
  <ellipse class="cls-1" cx="27.03" cy="60.26" rx="1.86" ry="2.04" transform="translate(-38.22 70.43) rotate(-74.7)"/>
  <path d="M38.02,21.94l.04-.14c.06-.21,.28-.33,.48-.28l2.84,.77c.21,.06,.33,.28,.28,.48l-.04,.14c-.06,.21-.28,.33-.48,.28l-2.84-.77c-.21-.06-.33-.28-.28-.48Z"/>
  <path d="M37.28,24.65l.04-.14c.06-.21,.28-.33,.48-.28l2.84,.77c.21,.06,.33,.28,.28,.48l-.04,.14c-.06,.21-.28,.33-.48,.28l-2.85-.77c-.21-.06-.33-.28-.28-.48h0Z"/>
  <path d="M36.56,27.37l.04-.14c.06-.21,.28-.33,.48-.28l2.84,.77c.21,.06,.33,.28,.28,.48l-.04,.14c-.06,.21-.28,.33-.48,.28l-2.84-.77c-.21-.06-.33-.28-.28-.48Z"/>
  <path d="M35.83,30.08l.04-.14c.06-.21,.28-.33,.48-.28l2.84,.77c.21,.06,.33,.28,.28,.48l-.04,.14c-.06,.21-.28,.33-.48,.28l-2.84-.77c-.21-.06-.33-.28-.28-.48Z"/>
  <path class="cls-3" d="M54.33,9.6c0,.42-.16,.82-.46,1.11-.29,.29-.69,.46-1.11,.46s-.81-.16-1.11-.46-.46-.69-.46-1.11,.16-.82,.46-1.11c.29-.29,.69-.46,1.11-.46s.81,.17,1.11,.46c.29,.29,.46,.69,.46,1.11Zm-8.86-6.65c0,.66-.26,1.3-.73,1.77-.47,.47-1.1,.73-1.76,.73s-1.3-.26-1.76-.73c-.47-.47-.73-1.11-.73-1.77s.26-1.3,.73-1.77c.47-.47,1.11-.73,1.76-.73s1.29,.26,1.76,.73c.47,.47,.73,1.11,.73,1.76h0Zm-1.17-1.46h0c-.31-.39-.78-.62-1.27-.62-.23,0-.43,.19-.43,.43s.19,.43,.43,.43,.46,.1,.6,.29c.08,.11,.2,.17,.34,.17,.1,0,.19-.03,.27-.09,.09-.07,.15-.17,.16-.29s-.02-.23-.09-.32h0Zm7,4.2h0c0,.51-.2,1.01-.56,1.37-.36,.36-.85,.56-1.36,.56s-1.01-.2-1.36-.57c-.36-.36-.56-.86-.56-1.37s.21-1.01,.57-1.37,.85-.56,1.37-.56,1,.21,1.36,.56c.36,.36,.56,.85,.56,1.36h-.01Zm-1.01-.52h0c-.19-.33-.54-.53-.91-.53-.24,0-.43,.19-.43,.43s.19,.43,.43,.43c.07,0,.13,.04,.17,.1,.07,.13,.22,.21,.37,.21,.07,0,.15-.02,.21-.05,.21-.12,.27-.39,.15-.6h0Zm5.37,2.12h0c-.13,0-.26,.05-.36,.15s-.15,.22-.15,.36,.05,.26,.15,.36c.09,.09,.22,.15,.36,.15s.26-.05,.36-.15,.15-.22,.15-.36-.05-.26-.15-.36-.22-.15-.36-.15h0Zm-5.01-4.87c.11,0,.21-.07,.25-.17,.04-.11,.02-.22-.06-.3-.08-.08-.2-.1-.3-.06-.1,.04-.17,.15-.17,.25,0,.15,.13,.28,.27,.28h0Zm-1.64-.56c.17,0,.34-.11,.41-.27,.07-.16,.03-.36-.09-.48-.13-.13-.32-.16-.48-.09s-.27,.23-.27,.41c0,.11,.05,.23,.13,.31s.19,.13,.31,.13h0Zm.36,6.99c-.15,0-.28,.09-.34,.23s-.03,.29,.08,.4c.11,.11,.26,.13,.4,.08s.23-.19,.23-.34c0-.09-.04-.19-.11-.25-.07-.07-.16-.11-.25-.11h0Z"/>
  <path class="cls-3" d="M31.75,50.93c0,.48-.19,.95-.53,1.29-.34,.34-.8,.54-1.29,.54s-.95-.19-1.29-.53-.54-.8-.54-1.29,.19-.95,.53-1.29c.34-.34,.8-.54,1.29-.54s.95,.19,1.29,.53c.34,.34,.54,.8,.54,1.29Zm7.62-3.28c-.02,.62-.28,1.22-.74,1.65s-1.06,.66-1.68,.64-1.21-.28-1.65-.74c-.43-.46-.66-1.06-.64-1.69,.02-.62,.28-1.22,.74-1.65s1.06-.66,1.68-.64,1.21,.28,1.64,.74,.66,1.06,.64,1.68h0Zm-1.07-1.41h0c-.28-.38-.72-.6-1.19-.62-.22,0-.41,.17-.42,.4,0,.22,.17,.41,.4,.42,.22,0,.43,.11,.56,.29,.07,.1,.19,.16,.32,.16,.09,0,.18-.03,.25-.08,.09-.07,.15-.16,.16-.27s-.01-.21-.08-.3h0Zm-.75,9.24h0c.16,.16,.25,.38,.25,.61s-.09,.45-.25,.61-.38,.25-.6,.25c-.23,0-.44-.09-.6-.25s-.25-.38-.25-.61,.09-.45,.25-.6c.16-.16,.38-.25,.6-.25s.44,.09,.6,.25h-.01Zm-.48,.15h0c-.16-.04-.34,0-.46,.12-.07,.07-.07,.19,0,.27s.19,.07,.27,0c.03-.02,.05-.03,.09-.02,.07,.02,.13,0,.18-.05,.02-.03,.04-.05,.05-.09,.03-.1-.03-.21-.14-.23h0Zm3.07-2.56h0c-.11,.11-.17,.26-.17,.42s.06,.31,.17,.42,.26,.17,.42,.17,.31-.06,.42-.17,.17-.26,.17-.42-.06-.31-.17-.42-.26-.17-.42-.17-.31,.06-.42,.17h0Zm-4.84,1.21c.09-.09,.12-.23,.07-.35-.05-.12-.17-.2-.29-.2s-.25,.08-.29,.2-.02,.26,.07,.36c.13,.13,.33,.13,.46,0h0Zm-1.81,.88c.15-.15,.19-.36,.11-.56-.08-.19-.26-.32-.47-.32s-.39,.12-.47,.32c-.08,.19-.03,.41,.11,.56,.09,.09,.23,.15,.36,.15s.26-.05,.36-.15h0Zm6.03,3.27c-.12,.12-.15,.3-.09,.46s.22,.26,.39,.26,.32-.1,.39-.26,.03-.34-.09-.46c-.08-.08-.19-.13-.3-.13s-.22,.05-.3,.12h.01Z"/>
</svg>