<?xml version="1.0" encoding="UTF-8"?>
<svg id="Layer_1" data-name="Layer 1" xmlns="http://www.w3.org/2000/svg" viewBox="0 0 1656 1008">
  <defs>
    <style>
      .cls-1 {
        fill: #e7f6fd;
      }

      .cls-2 {
        fill: #fff;
      }

      .cls-3 {
        fill: #ff3de3;
      }

      .cls-4 {
        fill: #272428;
      }
    </style>
  </defs>
  <g>
    <g>
      <path class="cls-1" d="M1004.28,847.23l-51.6-325.41c-2.25-16.21,.19-32.77,7.21-48.26l107.4-237.11-69.19-19.56-69.43-19.63-107.4,237.11c-7.01,15.48-18.43,29.51-33.18,40.92l-301.22,225.68c-22.94,17.72-14.34,48.13,15.65,56.61l222.22,62.81,221.99,62.75c30.14,8.73,61.07-10.73,57.56-35.92Z"/>
      <path class="cls-4" d="M944.44,888.18l-444.21-125.56c-16.29-4.61-28.22-15.34-32.05-28.63-3.84-13.29,1.54-26.92,13.86-36.49l301.22-225.68c13.94-10.79,24.87-24.33,31.46-38.88l109.77-242.34,151.14,42.72-109.6,241.96c-6.59,14.55-9.02,30.49-6.75,46.07l51.69,325.22c1.85,13.57-4.95,26.8-18.67,35.34-13.72,8.54-31.56,10.86-47.85,6.26Zm-11.92-684.15l-105.2,232.26c-7.27,16.04-19.34,30.94-34.82,42.77l-301.22,225.68c-9,6.93-12.77,17.01-10.11,27.03,2.74,9.82,11.41,17.75,23.45,21.15l444.21,125.56c12.04,3.4,25.1,1.62,35.11-4.6,10.01-6.22,15.2-15.91,13.65-26.02l-51.69-325.22c-2.38-17.09,.25-34.65,7.51-50.7l105.2-232.26-126.11-35.65Z"/>
    </g>
    <path class="cls-3" d="M984.79,849.08l-33.01-208.83-258.12-72.96-193.22,144.88c-5.84,4.66-8.39,10.89-6.51,17.31,1.88,6.43,7.38,11.35,15.17,13.55l444.21,125.56c7.79,2.2,15.99,1.15,22.61-2.87,6.62-4.02,9.88-10.04,8.87-16.64Z"/>
    <g>
      <path class="cls-1" d="M1080.71,215.62l-145.71-41.19c-15.35-4.34-32.35,2.01-37.84,14.14h0c-5.49,12.13,2.55,25.55,17.9,29.89l145.71,41.19c15.35,4.34,32.35-2.01,37.84-14.14h0c5.58-12.31-2.55-25.55-17.9-29.89Z"/>
      <path class="cls-4" d="M1058.66,264.31l-145.71-41.19c-18.66-5.27-28.6-21.55-21.84-36.48,6.76-14.92,27.28-22.59,46.17-17.25l145.71,41.19c18.66,5.27,28.6,21.55,21.84,36.48-6.76,14.92-27.52,22.53-46.17,17.25Zm-125.85-85.03c-11.81-3.34-25.19,1.51-29.5,11.02-4.31,9.51,1.91,19.9,13.95,23.3l145.71,41.19c11.81,3.34,25.19-1.51,29.5-11.02,4.31-9.51-1.91-19.9-13.95-23.3l-145.71-41.19Z"/>
    </g>
  </g>
  <ellipse class="cls-3" cx="824.33" cy="498.22" rx="8.71" ry="11.45" transform="translate(130.41 1166.22) rotate(-75.06)"/>
  <ellipse class="cls-2" cx="853.64" cy="679.01" rx="18.81" ry="14.86"/>
  <ellipse class="cls-2" cx="905.15" cy="724.09" rx="17.56" ry="13.87"/>
  <ellipse class="cls-2" cx="730.64" cy="680.02" rx="42.64" ry="33.68"/>
  <ellipse class="cls-3" cx="1079.44" cy="132.74" rx="12.56" ry="9.88" transform="translate(-7.63 99.68) rotate(-5.27)"/>
  <ellipse class="cls-3" cx="943.04" cy="292.6" rx="13.86" ry="17.55" transform="translate(628.33 1228.49) rotate(-88.65)"/>
  <ellipse class="cls-3" cx="883.99" cy="409.77" rx="13.86" ry="17.56" transform="translate(449.91 1282.07) rotate(-88.41)"/>
  <ellipse class="cls-3" cx="940.19" cy="371.1" rx="9.85" ry="12.58" transform="translate(450.38 1255.26) rotate(-82.55)"/>
  <ellipse class="cls-3" cx="1043.03" cy="178.9" rx="10.89" ry="13.79" transform="translate(829.8 1215.46) rotate(-88.11)"/>
  <ellipse class="cls-3" cx="979.1" cy="152.72" rx="10.11" ry="7.82" transform="translate(-10.79 198.38) rotate(-11.51)"/>
  <ellipse class="cls-2" cx="811.77" cy="715.58" rx="14.8" ry="11.69"/>
  <ellipse class="cls-3" cx="1000.89" cy="317.43" rx="10.05" ry="7.9" transform="translate(-24.92 93.25) rotate(-5.27)"/>
  <ellipse class="cls-3" cx="1037.83" cy="95.92" rx="10.05" ry="6.9" transform="translate(-4.42 98.64) rotate(-5.43)"/>
  <ellipse class="cls-3" cx="895.57" cy="468.37" rx="9.9" ry="12.54" transform="translate(389.6 1343.25) rotate(-87.57)"/>
  <ellipse class="cls-3" cx="876.06" cy="543.66" rx="9.07" ry="13.15" transform="translate(16.51 1113.07) rotate(-65.35)"/>
  <ellipse class="cls-3" cx="1018.05" cy="131.47" rx="11.3" ry="8.89" transform="translate(-7.7 92.22) rotate(-5.17)"/>
  <ellipse class="cls-3" cx="932.22" cy="431.78" rx="6.77" ry="8.9" transform="translate(274.69 1221.16) rotate(-75.06)"/>
  <ellipse class="cls-3" cx="985.21" cy="102.41" rx="8.71" ry="11.45" transform="translate(632.25 1027.9) rotate(-75.06)"/>
</svg>