<?xml version="1.0" encoding="UTF-8"?>
<svg id="Layer_2" data-name="Layer 2" xmlns="http://www.w3.org/2000/svg" viewBox="0 0 31.49 47.97">
  <defs>
    <style>
      .cls-1 {
        fill: #e7f6fd;
      }

      .cls-2 {
        fill: #fff;
      }

      .cls-3 {
        fill: #ff3de3;
      }

      .cls-4, .cls-5 {
        fill: #272428;
      }

      .cls-5 {
        stroke: #000;
        stroke-miterlimit: 10;
        stroke-width: .5px;
      }
    </style>
  </defs>
  <g id="Layer_1-2" data-name="Layer 1">
    <g>
      <g>
        <g>
          <path class="cls-1" d="M28.3,45.3l-3.98-19.1c-.18-.95-.12-1.94,.17-2.89l4.57-14.43-3.75-.41-3.81-.95-4.44,14.04c-.29,.92-.81,1.77-1.5,2.47L1.35,38.09c-1.08,1.1-.53,2.82,1.01,3.21l11.46,3.41,11.67,2.92c1.59,.41,3.1-.85,2.82-2.33Z"/>
          <path class="cls-5" d="M25.45,47.63L2.12,41.79c-.86-.21-1.51-.81-1.76-1.58-.25-.77-.03-1.6,.56-2.21l14.56-14.4c.67-.69,1.18-1.53,1.46-2.41l4.66-14.71,7.94,1.99-4.65,14.69c-.28,.88-.34,1.83-.16,2.75l3.98,19.04c.15,.8-.15,1.6-.82,2.15-.67,.55-1.58,.75-2.43,.54ZM22.08,7.14l-4.49,14.17c-.31,.98-.87,1.91-1.62,2.66L1.33,38.46c-.44,.44-.59,1.06-.41,1.64,.18,.57,.66,1.01,1.3,1.17l23.46,5.88c.64,.16,1.3,0,1.8-.4,.49-.41,.72-1,.6-1.59l-4-19.13c-.19-1.01-.13-2.06,.18-3.04l4.49-14.17-6.66-1.67Z"/>
        </g>
        <path class="cls-3" d="M25.74,44.26l-2.12-10.48-11.6-2.97-8.05,7.88c-.24,.25-.33,.57-.23,.89,.1,.32,.36,.55,.71,.64l19.97,5.12c.35,.09,.71,.01,.99-.21,.28-.22,.4-.54,.34-.87Z"/>
        <g>
          <path class="cls-1" d="M29.31,7.88l-7.1-1.78c-.75-.19-1.53,.22-1.75,.9h0c-.22,.68,.22,1.39,.97,1.58l7.1,1.78c.75,.19,1.53-.22,1.75-.9h0c.22-.69-.22-1.39-.97-1.58Z"/>
          <path class="cls-4" d="M28.96,10.74l-8.16-2.04c-1.05-.26-1.66-1.25-1.35-2.22s1.4-1.53,2.46-1.26l8.16,2.04c1.05,.26,1.66,1.25,1.35,2.22s-1.41,1.52-2.46,1.26Zm-6.92-4.41c-.59-.15-1.23,.17-1.4,.72s.17,1.11,.77,1.26l7.29,1.82c.59,.15,1.23-.17,1.4-.72s-.17-1.11-.77-1.26l-7.29-1.82Z"/>
        </g>
      </g>
      <ellipse class="cls-1" cx="17.5" cy="36.42" rx=".88" ry=".97" transform="translate(-22.24 43.69) rotate(-74.7)"/>
      <ellipse class="cls-2" cx="18.85" cy="40.21" rx=".82" ry=".9" transform="translate(-24.9 47.78) rotate(-74.7)"/>
      <ellipse class="cls-1" cx="10.85" cy="36.9" rx="2" ry="2.2" transform="translate(-27.61 37.62) rotate(-74.7)"/>
      <ellipse class="cls-2" cx="14.86" cy="40.03" rx=".69" ry=".76" transform="translate(-27.67 43.79) rotate(-74.7)"/>
      <ellipse class="cls-1" cx="14.71" cy="33.18" rx="1.03" ry="1.13" transform="translate(-21.18 38.62) rotate(-74.7)"/>
      <path d="M21.78,11.12h.08c.12,0,.22,.1,.22,.22v1.63c0,.12-.1,.22-.22,.22h-.08c-.12,0-.22-.1-.22-.22v-1.63c0-.12,.1-.22,.22-.22Z" transform="translate(4.41 30.06) rotate(-74.92)"/>
      <path d="M21.38,12.62h.08c.12,0,.22,.1,.22,.22v1.63c0,.12-.1,.22-.22,.22h-.08c-.12,0-.22-.1-.22-.22v-1.63c0-.12,.1-.22,.22-.22Z" transform="translate(2.65 30.79) rotate(-74.92)"/>
      <rect x="20.75" y="14.13" width=".52" height="2.08" rx=".22" ry=".22" transform="translate(.9 31.51) rotate(-74.92)"/>
      <rect x="20.35" y="15.64" width=".52" height="2.08" rx=".22" ry=".22" transform="translate(-.85 32.23) rotate(-74.92)"/>
      <path class="cls-3" d="M29.86,5.08c0,.23-.09,.45-.25,.62-.16,.16-.38,.26-.61,.26-.23,0-.45-.09-.61-.25-.16-.16-.25-.38-.26-.61,0-.23,.09-.45,.25-.62,.16-.16,.38-.26,.61-.26,.23,0,.45,.09,.61,.25,.16,.16,.26,.38,.26,.61Zm-4.92-3.69c0,.37-.15,.72-.41,.98-.26,.26-.61,.41-.98,.41-.37,0-.72-.15-.98-.41-.26-.26-.41-.61-.41-.98,0-.37,.15-.72,.41-.98,.26-.26,.61-.41,.98-.41,.37,0,.72,.15,.98,.41,.26,.26,.41,.61,.41,.98h0Zm-.65-.82h0c-.17-.22-.43-.34-.71-.34-.13,0-.24,.11-.24,.24,0,.13,.11,.24,.24,.24,.13,0,.25,.06,.33,.16,.04,.06,.11,.09,.19,.09,.05,0,.11-.02,.15-.05,.05-.04,.08-.1,.09-.16s-.01-.13-.05-.18h0Zm3.89,2.33h0c0,.28-.11,.56-.31,.76-.2,.2-.47,.31-.76,.31-.28,0-.56-.11-.76-.31-.2-.2-.31-.47-.31-.76,0-.28,.11-.56,.32-.76s.47-.31,.76-.31c.28,0,.55,.11,.75,.31,.2,.2,.31,.47,.31,.76h0Zm-.56-.3h0c-.11-.18-.3-.29-.51-.29-.13,0-.24,.11-.24,.24s.11,.24,.24,.24c.04,0,.08,.02,.1,.06,.04,.07,.12,.12,.21,.12,.04,0,.08-.01,.12-.03,.11-.07,.15-.22,.09-.33h0Zm2.98,1.17h0c-.07,0-.15,.03-.2,.08-.05,.05-.08,.12-.08,.2s.03,.15,.08,.2c.05,.05,.12,.08,.2,.08s.15-.03,.2-.08,.08-.12,.08-.2-.03-.15-.08-.2-.12-.08-.2-.08h0Zm-2.78-2.7c.06,0,.12-.04,.14-.1,.02-.06,.01-.12-.03-.17-.04-.04-.11-.06-.17-.03-.06,.02-.1,.08-.1,.14,0,.09,.07,.15,.15,.15Zm-.91-.31c.1,0,.19-.06,.23-.15,.04-.09,.02-.2-.05-.27-.07-.07-.17-.09-.27-.05-.09,.04-.15,.13-.15,.23,0,.06,.03,.13,.07,.17s.11,.07,.17,.07h0Zm.2,3.88c-.08,0-.16,.05-.19,.12s-.01,.16,.04,.22c.06,.06,.14,.08,.22,.04s.12-.1,.12-.19c0-.05-.02-.11-.06-.14-.04-.04-.09-.06-.14-.06h0Z"/>
      <path class="cls-3" d="M17.33,28.01c0,.27-.11,.52-.29,.71-.19,.19-.44,.3-.71,.3-.27,0-.52-.11-.71-.29-.19-.19-.3-.45-.3-.71,0-.27,.11-.52,.29-.71,.19-.19,.44-.3,.71-.3,.27,0,.52,.11,.71,.3,.19,.19,.3,.45,.3,.71Zm4.23-1.82c0,.35-.16,.68-.41,.91-.25,.24-.59,.37-.93,.36-.35,0-.67-.16-.91-.41-.24-.25-.37-.59-.36-.94,0-.35,.16-.68,.41-.91,.25-.24,.59-.37,.93-.36,.35,.01,.67,.16,.91,.41,.24,.25,.37,.59,.36,.94h0Zm-.59-.79h0c-.16-.21-.4-.33-.66-.34-.12,0-.23,.09-.23,.22,0,.12,.1,.23,.22,.23,.12,0,.24,.06,.31,.16,.04,.06,.1,.09,.17,.09,.05,0,.1-.01,.14-.05,.05-.04,.08-.09,.09-.15s0-.12-.04-.17h0Zm-.42,5.13h0c.09,.09,.14,.21,.14,.34,0,.13-.05,.25-.14,.34-.09,.09-.21,.14-.34,.14-.13,0-.25-.05-.34-.14-.09-.09-.14-.21-.14-.34s.05-.25,.14-.34c.09-.09,.21-.14,.34-.14,.13,0,.25,.05,.34,.14h0Zm-.27,.08h0c-.09-.02-.19,0-.25,.07-.04,.04-.04,.11,0,.15s.11,.04,.15,0c.01-.01,.03-.02,.05-.01,.04,0,.07,0,.1-.03,.01-.01,.02-.03,.03-.05,.01-.06-.02-.12-.08-.13h0Zm1.7-1.42h0c-.06,.06-.1,.14-.1,.23,0,.09,.03,.17,.1,.23s.14,.1,.23,.1c.09,0,.17-.03,.23-.1s.1-.14,.1-.23-.03-.17-.1-.23-.14-.1-.23-.1-.17,.03-.23,.1h0Zm-2.69,.67c.05-.05,.07-.13,.04-.2-.03-.07-.09-.11-.17-.11-.07,0-.14,.04-.17,.11-.03,.07-.01,.14,.04,.2,.07,.07,.18,.07,.25,0Zm-1,.5c.08-.08,.11-.2,.06-.31-.04-.11-.15-.17-.26-.18-.11,0-.22,.07-.26,.17-.04,.11-.02,.23,.06,.31,.05,.05,.12,.08,.2,.08s.15-.03,.2-.08h0Zm3.34,1.82c-.07,.07-.09,.17-.05,.26s.12,.15,.22,.15c.09,0,.18-.06,.22-.14s.02-.19-.05-.26c-.04-.04-.1-.07-.17-.07-.06,0-.12,.02-.17,.07h0Z"/>
    </g>
  </g>
</svg>