<svg xmlns="http://www.w3.org/2000/svg" xmlns:xlink="http://www.w3.org/1999/xlink" width="1500" zoomAndPan="magnify" viewBox="0 0 1125 262.499992" height="350" preserveAspectRatio="xMidYMid meet" version="1.0"><defs><g/><clipPath id="196c4532fc"><path d="M 1.070312 0 L 1123.929688 0 L 1123.929688 262 L 1.070312 262 Z M 1.070312 0 " clip-rule="nonzero"/></clipPath><clipPath id="034b364ba9"><path d="M 1.070312 27 L 360 27 L 360 262 L 1.070312 262 Z M 1.070312 27 " clip-rule="nonzero"/></clipPath><clipPath id="7cfc8c0b00"><path d="M 110.921875 -89.566406 L 417.683594 288.125 L 167.824219 491.058594 L -138.933594 113.367188 Z M 110.921875 -89.566406 " clip-rule="nonzero"/></clipPath><clipPath id="f134b931d5"><path d="M 110.921875 -89.566406 L 417.683594 288.125 L 167.824219 491.058594 L -138.933594 113.367188 Z M 110.921875 -89.566406 " clip-rule="nonzero"/></clipPath><clipPath id="5c3edc1473"><path d="M 801 0 L 1123.929688 0 L 1123.929688 197 L 801 197 Z M 801 0 " clip-rule="nonzero"/></clipPath><clipPath id="3bfd9a1309"><path d="M 1018.523438 -297.414062 L 1229.785156 140.90625 L 939.820312 280.660156 L 728.558594 -157.65625 Z M 1018.523438 -297.414062 " clip-rule="nonzero"/></clipPath><clipPath id="4c421a99e0"><path d="M 1018.523438 -297.414062 L 1229.785156 140.90625 L 939.820312 280.660156 L 728.558594 -157.65625 Z M 1018.523438 -297.414062 " clip-rule="nonzero"/></clipPath></defs><g clip-path="url(#196c4532fc)"><path fill="#ffffff" d="M 1.070312 0 L 1123.929688 0 L 1123.929688 269.488281 L 1.070312 269.488281 Z M 1.070312 0 " fill-opacity="1" fill-rule="nonzero"/><path fill="#ffffff" d="M 1.070312 0 L 1123.929688 0 L 1123.929688 262 L 1.070312 262 Z M 1.070312 0 " fill-opacity="1" fill-rule="nonzero"/><path fill="#ffffff" d="M 1.070312 0 L 1123.929688 0 L 1123.929688 262 L 1.070312 262 Z M 1.070312 0 " fill-opacity="1" fill-rule="nonzero"/></g><g clip-path="url(#034b364ba9)"><g clip-path="url(#7cfc8c0b00)"><g clip-path="url(#f134b931d5)"><path fill="#22fe14" d="M 63.503906 72.019531 C 69.0625 78.695312 74.046875 85.835938 78.386719 93.363281 C 85.171875 104.90625 93.652344 115.347656 103.480469 124.425781 C 112.636719 132.679688 122.953125 139.171875 133.707031 145.035156 C 141.542969 149.316406 149.792969 149.574219 158.054688 147.503906 C 168.5625 144.835938 178.882812 141.773438 189.21875 138.566406 C 198.617188 135.707031 207.726562 131.992188 217.433594 130.523438 C 230.984375 128.25 244.925781 129.480469 257.917969 134.070312 C 267.417969 137.546875 276.945312 140.722656 286.527344 144.128906 C 293.421875 146.582031 299.472656 150.671875 305.09375 155.246094 C 318.835938 166.464844 329.652344 179.78125 336.761719 196.25 C 345.148438 215.636719 351.890625 235.675781 356.914062 256.292969 C 360.609375 271.578125 360.4375 287.132812 358.910156 302.703125 C 358.1875 311.203125 356.421875 319.597656 353.558594 327.652344 C 350.296875 336.714844 345.007812 344.96875 337.9375 351.527344 C 330.359375 358.640625 322.597656 365.351562 312.859375 369.304688 C 293.933594 377.035156 274.691406 378.335938 255.78125 369.816406 C 248.582031 366.660156 241.820312 362.191406 235.289062 357.671875 C 220.8125 347.734375 204.886719 340.203125 188.003906 335.355469 C 175.296875 331.621094 162.152344 330.699219 148.890625 330.144531 C 134.425781 329.613281 119.996094 329.460938 105.609375 328.1875 C 84.886719 326.324219 64.441406 322.460938 45.09375 314.570312 C 34.046875 310.03125 23.542969 304.648438 14.570312 296.789062 C -1.023438 283.121094 -10.269531 266.207031 -10.507812 245.113281 C -10.71875 233.277344 -10.332031 221.503906 -10.328125 209.765625 C -10.21875 199.167969 -10.1875 188.636719 -12.652344 178.21875 C -15.191406 166.367188 -20.835938 155.394531 -28.859375 146.355469 C -35.011719 139.617188 -41.492188 133.148438 -47.742188 126.625 C -54.660156 119.285156 -61.003906 111.472656 -65.558594 102.34375 C -73.753906 86.214844 -71.730469 70.925781 -61.730469 56.394531 C -52.46875 43.136719 -39.328125 35.328125 -24.242188 30.582031 C -16.855469 28.269531 -9.148438 27.191406 -1.496094 27.390625 C 9.003906 27.730469 18.140625 31.769531 26.816406 37.417969 C 36.402344 43.683594 44.546875 51.53125 52.265625 59.863281 Z M 63.503906 72.019531 " fill-opacity="1" fill-rule="nonzero"/></g></g></g><g fill="#000000" fill-opacity="1"><g transform="translate(417.463806, 132.428527)"><g><path d="M 32.59375 0 L 26.390625 -21.78125 L 20.171875 0 L 10.34375 0 L -0.703125 -38.796875 L 9.125 -38.796875 L 15.75 -12.1875 L 15.984375 -12.1875 L 23.046875 -38.796875 L 29.71875 -38.796875 L 36.78125 -12.1875 L 37.015625 -12.1875 L 43.640625 -38.796875 L 53.421875 -38.796875 L 42.375 0 Z M 32.59375 0 "/></g></g></g><g fill="#000000" fill-opacity="1"><g transform="translate(470.187568, 132.428527)"><g><path d="M 25.015625 -38.796875 L 25.015625 -31.046875 L 11.65625 -31.046875 L 11.65625 -23.328125 L 24.453125 -23.328125 L 24.453125 -15.5625 L 11.65625 -15.5625 L 11.65625 -7.765625 L 25.015625 -7.765625 L 25.015625 0 L 2.828125 0 L 2.828125 -38.796875 Z M 25.015625 -38.796875 "/></g></g></g><g fill="#000000" fill-opacity="1"><g transform="translate(497.466584, 132.428527)"><g><path d="M 11.65625 -38.796875 L 11.65625 -7.765625 L 25.015625 -7.765625 L 25.015625 0 L 2.828125 0 L 2.828125 -38.796875 Z M 11.65625 -38.796875 "/></g></g></g><g fill="#000000" fill-opacity="1"><g transform="translate(524.04011, 132.428527)"><g><path d="M 23.46875 -8 C 24.8125 -8 26.117188 -8.203125 27.390625 -8.609375 C 28.660156 -9.015625 29.59375 -9.40625 30.1875 -9.78125 L 31.09375 -10.390625 L 34.84375 -2.875 C 34.71875 -2.78125 34.546875 -2.648438 34.328125 -2.484375 C 34.109375 -2.328125 33.597656 -2.035156 32.796875 -1.609375 C 32.003906 -1.191406 31.148438 -0.828125 30.234375 -0.515625 C 29.328125 -0.203125 28.132812 0.078125 26.65625 0.328125 C 25.1875 0.578125 23.671875 0.703125 22.109375 0.703125 C 18.503906 0.703125 15.082031 -0.179688 11.84375 -1.953125 C 8.613281 -3.722656 6.007812 -6.160156 4.03125 -9.265625 C 2.0625 -12.367188 1.078125 -15.722656 1.078125 -19.328125 C 1.078125 -22.054688 1.65625 -24.675781 2.8125 -27.1875 C 3.976562 -29.695312 5.523438 -31.84375 7.453125 -33.625 C 9.378906 -35.414062 11.628906 -36.84375 14.203125 -37.90625 C 16.773438 -38.96875 19.410156 -39.5 22.109375 -39.5 C 24.609375 -39.5 26.914062 -39.203125 29.03125 -38.609375 C 31.15625 -38.015625 32.65625 -37.421875 33.53125 -36.828125 L 34.84375 -35.9375 L 31.09375 -28.40625 C 30.875 -28.59375 30.539062 -28.816406 30.09375 -29.078125 C 29.65625 -29.347656 28.773438 -29.703125 27.453125 -30.140625 C 26.140625 -30.585938 24.8125 -30.8125 23.46875 -30.8125 C 21.332031 -30.8125 19.414062 -30.460938 17.71875 -29.765625 C 16.03125 -29.078125 14.691406 -28.164062 13.703125 -27.03125 C 12.722656 -25.90625 11.972656 -24.691406 11.453125 -23.390625 C 10.929688 -22.097656 10.671875 -20.773438 10.671875 -19.421875 C 10.671875 -16.472656 11.773438 -13.832031 13.984375 -11.5 C 16.203125 -9.164062 19.363281 -8 23.46875 -8 Z M 23.46875 -8 "/></g></g></g><g fill="#000000" fill-opacity="1"><g transform="translate(559.455802, 132.428527)"><g><path d="M 1.078125 -19.421875 C 1.078125 -25.035156 2.988281 -29.785156 6.8125 -33.671875 C 10.644531 -37.554688 15.253906 -39.5 20.640625 -39.5 C 26.066406 -39.5 30.675781 -37.5625 34.46875 -33.6875 C 38.269531 -29.820312 40.171875 -25.066406 40.171875 -19.421875 C 40.171875 -13.742188 38.300781 -8.96875 34.5625 -5.09375 C 30.832031 -1.226562 26.191406 0.703125 20.640625 0.703125 C 14.972656 0.703125 10.296875 -1.210938 6.609375 -5.046875 C 2.921875 -8.890625 1.078125 -13.679688 1.078125 -19.421875 Z M 10.625 -19.421875 C 10.625 -17.378906 10.9375 -15.519531 11.5625 -13.84375 C 12.195312 -12.164062 13.296875 -10.75 14.859375 -9.59375 C 16.429688 -8.4375 18.359375 -7.859375 20.640625 -7.859375 C 23.929688 -7.859375 26.414062 -8.984375 28.09375 -11.234375 C 29.78125 -13.492188 30.625 -16.222656 30.625 -19.421875 C 30.625 -22.585938 29.765625 -25.304688 28.046875 -27.578125 C 26.335938 -29.859375 23.867188 -31 20.640625 -31 C 17.441406 -31 14.972656 -29.859375 13.234375 -27.578125 C 11.492188 -25.304688 10.625 -22.585938 10.625 -19.421875 Z M 10.625 -19.421875 "/></g></g></g><g fill="#000000" fill-opacity="1"><g transform="translate(600.703554, 132.428527)"><g><path d="M 34.890625 0 L 33.0625 -23 L 32.828125 -23 L 24.875 -0.234375 L 19.609375 -0.234375 L 11.65625 -23 L 11.421875 -23 L 9.59375 0 L 0.75 0 L 4.234375 -38.796875 L 13.640625 -38.796875 L 22.25 -16.40625 L 30.859375 -38.796875 L 40.265625 -38.796875 L 43.734375 0 Z M 34.890625 0 "/></g></g></g><g fill="#000000" fill-opacity="1"><g transform="translate(645.196575, 132.428527)"><g><path d="M 25.015625 -38.796875 L 25.015625 -31.046875 L 11.65625 -31.046875 L 11.65625 -23.328125 L 24.453125 -23.328125 L 24.453125 -15.5625 L 11.65625 -15.5625 L 11.65625 -7.765625 L 25.015625 -7.765625 L 25.015625 0 L 2.828125 0 L 2.828125 -38.796875 Z M 25.015625 -38.796875 "/></g></g></g><g fill="#000000" fill-opacity="1"><g transform="translate(672.4756, 132.428527)"><g/></g></g><g fill="#000000" fill-opacity="1"><g transform="translate(685.315558, 132.428527)"><g><path d="M 0.375 -31.046875 L 0.375 -38.796875 L 27.65625 -38.796875 L 27.65625 -31.046875 L 18.4375 -31.046875 L 18.4375 0 L 9.59375 0 L 9.59375 -31.046875 Z M 0.375 -31.046875 "/></g></g></g><g fill="#000000" fill-opacity="1"><g transform="translate(713.347114, 132.428527)"><g><path d="M 1.078125 -19.421875 C 1.078125 -25.035156 2.988281 -29.785156 6.8125 -33.671875 C 10.644531 -37.554688 15.253906 -39.5 20.640625 -39.5 C 26.066406 -39.5 30.675781 -37.5625 34.46875 -33.6875 C 38.269531 -29.820312 40.171875 -25.066406 40.171875 -19.421875 C 40.171875 -13.742188 38.300781 -8.96875 34.5625 -5.09375 C 30.832031 -1.226562 26.191406 0.703125 20.640625 0.703125 C 14.972656 0.703125 10.296875 -1.210938 6.609375 -5.046875 C 2.921875 -8.890625 1.078125 -13.679688 1.078125 -19.421875 Z M 10.625 -19.421875 C 10.625 -17.378906 10.9375 -15.519531 11.5625 -13.84375 C 12.195312 -12.164062 13.296875 -10.75 14.859375 -9.59375 C 16.429688 -8.4375 18.359375 -7.859375 20.640625 -7.859375 C 23.929688 -7.859375 26.414062 -8.984375 28.09375 -11.234375 C 29.78125 -13.492188 30.625 -16.222656 30.625 -19.421875 C 30.625 -22.585938 29.765625 -25.304688 28.046875 -27.578125 C 26.335938 -29.859375 23.867188 -31 20.640625 -31 C 17.441406 -31 14.972656 -29.859375 13.234375 -27.578125 C 11.492188 -25.304688 10.625 -22.585938 10.625 -19.421875 Z M 10.625 -19.421875 "/></g></g></g><g fill="#000000" fill-opacity="1"><g transform="translate(417.463806, 184.828715)"><g><path d="M 2.828125 -38.796875 L 14.0625 -38.796875 C 19.457031 -38.796875 24.066406 -36.953125 27.890625 -33.265625 C 31.710938 -29.585938 33.625 -24.972656 33.625 -19.421875 C 33.625 -13.835938 31.71875 -9.203125 27.90625 -5.515625 C 24.101562 -1.835938 19.488281 0 14.0625 0 L 2.828125 0 Z M 11.65625 -7.90625 L 13.03125 -7.90625 C 16.257812 -7.90625 18.898438 -8.992188 20.953125 -11.171875 C 23.003906 -13.347656 24.046875 -16.082031 24.078125 -19.375 C 24.078125 -22.664062 23.050781 -25.410156 21 -27.609375 C 18.945312 -29.804688 16.289062 -30.90625 13.03125 -30.90625 L 11.65625 -30.90625 Z M 11.65625 -7.90625 "/></g></g></g><g fill="#000000" fill-opacity="1"><g transform="translate(452.174009, 184.828715)"><g><path d="M 11.65625 -38.796875 L 11.65625 0 L 2.828125 0 L 2.828125 -38.796875 Z M 11.65625 -38.796875 "/></g></g></g><g fill="#000000" fill-opacity="1"><g transform="translate(466.660108, 184.828715)"><g><path d="M 17.125 -39.5 C 19.21875 -39.5 21.269531 -39.191406 23.28125 -38.578125 C 25.289062 -37.972656 26.78125 -37.375 27.75 -36.78125 L 29.15625 -35.84375 L 25.578125 -28.78125 C 25.296875 -28.96875 24.90625 -29.207031 24.40625 -29.5 C 23.90625 -29.800781 22.960938 -30.203125 21.578125 -30.703125 C 20.203125 -31.210938 18.921875 -31.46875 17.734375 -31.46875 C 16.253906 -31.46875 15.113281 -31.148438 14.3125 -30.515625 C 13.519531 -29.890625 13.125 -29.046875 13.125 -27.984375 C 13.125 -27.453125 13.3125 -26.957031 13.6875 -26.5 C 14.0625 -26.039062 14.703125 -25.550781 15.609375 -25.03125 C 16.523438 -24.519531 17.328125 -24.109375 18.015625 -23.796875 C 18.703125 -23.484375 19.769531 -23.015625 21.21875 -22.390625 C 23.71875 -21.316406 25.851562 -19.863281 27.625 -18.03125 C 29.394531 -16.195312 30.28125 -14.125 30.28125 -11.8125 C 30.28125 -9.582031 29.878906 -7.632812 29.078125 -5.96875 C 28.285156 -4.3125 27.191406 -3.007812 25.796875 -2.0625 C 24.398438 -1.125 22.851562 -0.429688 21.15625 0.015625 C 19.46875 0.472656 17.632812 0.703125 15.65625 0.703125 C 13.96875 0.703125 12.304688 0.53125 10.671875 0.1875 C 9.046875 -0.15625 7.679688 -0.582031 6.578125 -1.09375 C 5.484375 -1.613281 4.492188 -2.125 3.609375 -2.625 C 2.734375 -3.132812 2.09375 -3.5625 1.6875 -3.90625 L 1.078125 -4.421875 L 5.5 -11.859375 C 5.875 -11.535156 6.390625 -11.128906 7.046875 -10.640625 C 7.710938 -10.160156 8.882812 -9.515625 10.5625 -8.703125 C 12.238281 -7.890625 13.71875 -7.484375 15 -7.484375 C 18.726562 -7.484375 20.59375 -8.75 20.59375 -11.28125 C 20.59375 -11.820312 20.457031 -12.316406 20.1875 -12.765625 C 19.925781 -13.222656 19.457031 -13.675781 18.78125 -14.125 C 18.113281 -14.582031 17.519531 -14.941406 17 -15.203125 C 16.476562 -15.472656 15.628906 -15.882812 14.453125 -16.4375 C 13.285156 -16.988281 12.421875 -17.40625 11.859375 -17.6875 C 9.503906 -18.84375 7.679688 -20.289062 6.390625 -22.03125 C 5.109375 -23.769531 4.46875 -25.644531 4.46875 -27.65625 C 4.46875 -31.132812 5.753906 -33.976562 8.328125 -36.1875 C 10.898438 -38.394531 13.832031 -39.5 17.125 -39.5 Z M 17.125 -39.5 "/></g></g></g><g fill="#000000" fill-opacity="1"><g transform="translate(498.266147, 184.828715)"><g><path d="M 0.375 -31.046875 L 0.375 -38.796875 L 27.65625 -38.796875 L 27.65625 -31.046875 L 18.4375 -31.046875 L 18.4375 0 L 9.59375 0 L 9.59375 -31.046875 Z M 0.375 -31.046875 "/></g></g></g><g fill="#000000" fill-opacity="1"><g transform="translate(526.297694, 184.828715)"><g><path d="M 11.65625 -38.796875 L 11.65625 0 L 2.828125 0 L 2.828125 -38.796875 Z M 11.65625 -38.796875 "/></g></g></g><g fill="#000000" fill-opacity="1"><g transform="translate(540.783793, 184.828715)"><g><path d="M 11.65625 -38.796875 L 11.65625 -7.765625 L 25.015625 -7.765625 L 25.015625 0 L 2.828125 0 L 2.828125 -38.796875 Z M 11.65625 -38.796875 "/></g></g></g><g fill="#000000" fill-opacity="1"><g transform="translate(567.357318, 184.828715)"><g><path d="M 11.65625 -38.796875 L 11.65625 -7.765625 L 25.015625 -7.765625 L 25.015625 0 L 2.828125 0 L 2.828125 -38.796875 Z M 11.65625 -38.796875 "/></g></g></g><g fill="#000000" fill-opacity="1"><g transform="translate(593.930844, 184.828715)"><g><path d="M 25.015625 -38.796875 L 25.015625 -31.046875 L 11.65625 -31.046875 L 11.65625 -23.328125 L 24.453125 -23.328125 L 24.453125 -15.5625 L 11.65625 -15.5625 L 11.65625 -7.765625 L 25.015625 -7.765625 L 25.015625 0 L 2.828125 0 L 2.828125 -38.796875 Z M 25.015625 -38.796875 "/></g></g></g><g fill="#000000" fill-opacity="1"><g transform="translate(621.209868, 184.828715)"><g><path d="M 2.828125 -38.796875 L 14.0625 -38.796875 C 19.457031 -38.796875 24.066406 -36.953125 27.890625 -33.265625 C 31.710938 -29.585938 33.625 -24.972656 33.625 -19.421875 C 33.625 -13.835938 31.71875 -9.203125 27.90625 -5.515625 C 24.101562 -1.835938 19.488281 0 14.0625 0 L 2.828125 0 Z M 11.65625 -7.90625 L 13.03125 -7.90625 C 16.257812 -7.90625 18.898438 -8.992188 20.953125 -11.171875 C 23.003906 -13.347656 24.046875 -16.082031 24.078125 -19.375 C 24.078125 -22.664062 23.050781 -25.410156 21 -27.609375 C 18.945312 -29.804688 16.289062 -30.90625 13.03125 -30.90625 L 11.65625 -30.90625 Z M 11.65625 -7.90625 "/></g></g></g><g clip-path="url(#5c3edc1473)"><g clip-path="url(#3bfd9a1309)"><g clip-path="url(#4c421a99e0)"><path fill="#ff3de3" d="M 935.078125 -151.140625 C 938.941406 -143.363281 942.140625 -135.261719 944.628906 -126.9375 C 948.566406 -114.140625 954.40625 -102.023438 961.871094 -90.921875 C 968.871094 -80.777344 977.410156 -72.074219 986.523438 -63.886719 C 993.160156 -57.914062 1001.125 -55.757812 1009.644531 -55.867188 C 1020.480469 -56.035156 1031.230469 -56.628906 1042.027344 -57.367188 C 1051.832031 -57.976562 1061.550781 -59.484375 1071.335938 -58.675781 C 1085.042969 -57.757812 1098.324219 -53.34375 1109.910156 -45.875 C 1118.347656 -40.300781 1126.886719 -35.007812 1135.421875 -29.480469 C 1141.5625 -25.503906 1146.503906 -20.125 1150.917969 -14.378906 C 1161.699219 -0.289062 1169.148438 15.164062 1172.261719 32.828125 C 1175.945312 53.628906 1177.878906 74.683594 1178.007812 95.902344 C 1178.070312 111.628906 1174.3125 126.726562 1169.234375 141.519531 C 1166.566406 149.625 1162.90625 157.382812 1158.265625 164.558594 C 1152.996094 172.625 1145.945312 179.433594 1137.550781 184.183594 C 1128.535156 189.351562 1119.433594 194.09375 1109.046875 195.6875 C 1088.847656 198.839844 1069.824219 195.664062 1053.390625 183.007812 C 1047.117188 178.269531 1041.570312 172.363281 1036.257812 166.457031 C 1024.46875 153.445312 1010.710938 142.441406 995.40625 133.824219 C 983.902344 127.257812 971.324219 123.328125 958.554688 119.726562 C 944.601562 115.867188 930.597656 112.386719 916.890625 107.824219 C 897.15625 101.226562 878.160156 92.746094 861.152344 80.605469 C 851.457031 73.636719 842.480469 65.972656 835.5625 56.253906 C 823.542969 39.355469 818.457031 20.761719 823.097656 0.183594 C 825.625 -11.382812 828.714844 -22.75 831.429688 -34.167969 C 833.988281 -44.453125 836.449219 -54.691406 836.457031 -65.394531 C 836.71875 -77.515625 833.765625 -89.496094 828.046875 -100.140625 C 823.613281 -108.117188 818.800781 -115.910156 814.226562 -123.699219 C 809.191406 -132.441406 804.820312 -141.503906 802.5 -151.4375 C 798.25 -169.023438 803.75 -183.433594 816.832031 -195.265625 C 828.90625 -206.023438 843.496094 -210.585938 859.269531 -211.71875 C 866.988281 -212.265625 874.738281 -211.535156 882.140625 -209.574219 C 892.273438 -206.816406 900.234375 -200.777344 907.367188 -193.28125 C 915.25 -184.96875 921.363281 -175.453125 926.949219 -165.566406 Z M 935.078125 -151.140625 " fill-opacity="1" fill-rule="nonzero"/></g></g></g></svg>