<svg xmlns="http://www.w3.org/2000/svg" xmlns:xlink="http://www.w3.org/1999/xlink" width="1400" zoomAndPan="magnify" viewBox="0 0 1050 262.499992" height="350" preserveAspectRatio="xMidYMid meet" version="1.0"><defs><g/><clipPath id="436fcd2e1b"><path d="M 1 0 L 1049 0 L 1049 262 L 1 262 Z M 1 0 " clip-rule="nonzero"/></clipPath><clipPath id="234d647de1"><path d="M 1 27 L 363 27 L 363 262 L 1 262 Z M 1 27 " clip-rule="nonzero"/></clipPath><clipPath id="f8e78ab48b"><path d="M 113.289062 -89.566406 L 420.050781 288.125 L 170.191406 491.058594 L -136.570312 113.367188 Z M 113.289062 -89.566406 " clip-rule="nonzero"/></clipPath><clipPath id="ccb3f587a4"><path d="M 113.289062 -89.566406 L 420.050781 288.125 L 170.191406 491.058594 L -136.570312 113.367188 Z M 113.289062 -89.566406 " clip-rule="nonzero"/></clipPath><clipPath id="a3ba29c771"><path d="M 714 0 L 1049 0 L 1049 179 L 714 179 Z M 714 0 " clip-rule="nonzero"/></clipPath><clipPath id="52618781c1"><path d="M 932.085938 -315.859375 L 1143.34375 122.457031 L 853.378906 262.214844 L 642.121094 -176.105469 Z M 932.085938 -315.859375 " clip-rule="nonzero"/></clipPath><clipPath id="64cece21f6"><path d="M 932.085938 -315.859375 L 1143.34375 122.457031 L 853.378906 262.214844 L 642.121094 -176.105469 Z M 932.085938 -315.859375 " clip-rule="nonzero"/></clipPath></defs><g clip-path="url(#436fcd2e1b)"><path fill="#ffffff" d="M 1 0 L 1049 0 L 1049 269.488281 L 1 269.488281 Z M 1 0 " fill-opacity="1" fill-rule="nonzero"/></g><path fill="#ffffff" d="M 1 0 L 1049 0 L 1049 262 L 1 262 Z M 1 0 " fill-opacity="1" fill-rule="nonzero"/><path fill="#ffffff" d="M 1 0 L 1049 0 L 1049 262 L 1 262 Z M 1 0 " fill-opacity="1" fill-rule="nonzero"/><g clip-path="url(#234d647de1)"><g clip-path="url(#f8e78ab48b)"><g clip-path="url(#ccb3f587a4)"><path fill="#c7f820" d="M 65.871094 72.019531 C 71.429688 78.695312 76.410156 85.835938 80.753906 93.363281 C 87.539062 104.90625 96.019531 115.347656 105.84375 124.425781 C 115.003906 132.679688 125.316406 139.171875 136.074219 145.035156 C 143.910156 149.316406 152.160156 149.574219 160.421875 147.503906 C 170.929688 144.835938 181.25 141.773438 191.585938 138.566406 C 200.984375 135.707031 210.09375 131.992188 219.800781 130.523438 C 233.351562 128.25 247.292969 129.480469 260.285156 134.070312 C 269.785156 137.546875 279.3125 140.722656 288.894531 144.128906 C 295.789062 146.582031 301.835938 150.671875 307.460938 155.246094 C 321.203125 166.464844 332.019531 179.78125 339.128906 196.25 C 347.515625 215.636719 354.257812 235.675781 359.28125 256.292969 C 362.976562 271.578125 362.804688 287.132812 361.277344 302.703125 C 360.554688 311.203125 358.785156 319.597656 355.925781 327.652344 C 352.660156 336.714844 347.375 344.96875 340.304688 351.527344 C 332.726562 358.640625 324.964844 365.351562 315.226562 369.304688 C 296.300781 377.035156 277.058594 378.335938 258.148438 369.816406 C 250.949219 366.660156 244.1875 362.191406 237.65625 357.671875 C 223.179688 347.734375 207.253906 340.203125 190.371094 335.355469 C 177.664062 331.621094 164.519531 330.699219 151.257812 330.144531 C 136.792969 329.613281 122.363281 329.460938 107.976562 328.1875 C 87.253906 326.324219 66.808594 322.460938 47.457031 314.570312 C 36.414062 310.03125 25.910156 304.648438 16.9375 296.789062 C 1.339844 283.121094 -7.902344 266.207031 -8.140625 245.113281 C -8.351562 233.277344 -7.964844 221.503906 -7.960938 209.765625 C -7.851562 199.167969 -7.820312 188.636719 -10.285156 178.21875 C -12.828125 166.367188 -18.46875 155.394531 -26.492188 146.355469 C -32.644531 139.617188 -39.125 133.148438 -45.375 126.625 C -52.292969 119.285156 -58.636719 111.472656 -63.191406 102.34375 C -71.386719 86.214844 -69.363281 70.925781 -59.363281 56.394531 C -50.101562 43.136719 -36.960938 35.328125 -21.875 30.582031 C -14.492188 28.269531 -6.78125 27.191406 0.871094 27.390625 C 11.371094 27.730469 20.507812 31.769531 29.183594 37.417969 C 38.769531 43.683594 46.914062 51.53125 54.632812 59.863281 Z M 65.871094 72.019531 " fill-opacity="1" fill-rule="nonzero"/></g></g></g><g fill="#000000" fill-opacity="1"><g transform="translate(392.870804, 132.428527)"><g><path d="M 32.59375 0 L 26.390625 -21.78125 L 20.171875 0 L 10.34375 0 L -0.703125 -38.796875 L 9.125 -38.796875 L 15.75 -12.1875 L 15.984375 -12.1875 L 23.046875 -38.796875 L 29.71875 -38.796875 L 36.78125 -12.1875 L 37.015625 -12.1875 L 43.640625 -38.796875 L 53.421875 -38.796875 L 42.375 0 Z M 32.59375 0 "/></g></g></g><g fill="#000000" fill-opacity="1"><g transform="translate(445.594566, 132.428527)"><g><path d="M 25.015625 -38.796875 L 25.015625 -31.046875 L 11.65625 -31.046875 L 11.65625 -23.328125 L 24.453125 -23.328125 L 24.453125 -15.5625 L 11.65625 -15.5625 L 11.65625 -7.765625 L 25.015625 -7.765625 L 25.015625 0 L 2.828125 0 L 2.828125 -38.796875 Z M 25.015625 -38.796875 "/></g></g></g><g fill="#000000" fill-opacity="1"><g transform="translate(472.873582, 132.428527)"><g><path d="M 11.65625 -38.796875 L 11.65625 -7.765625 L 25.015625 -7.765625 L 25.015625 0 L 2.828125 0 L 2.828125 -38.796875 Z M 11.65625 -38.796875 "/></g></g></g><g fill="#000000" fill-opacity="1"><g transform="translate(499.447107, 132.428527)"><g><path d="M 23.46875 -8 C 24.8125 -8 26.117188 -8.203125 27.390625 -8.609375 C 28.660156 -9.015625 29.59375 -9.40625 30.1875 -9.78125 L 31.09375 -10.390625 L 34.84375 -2.875 C 34.71875 -2.78125 34.546875 -2.648438 34.328125 -2.484375 C 34.109375 -2.328125 33.597656 -2.035156 32.796875 -1.609375 C 32.003906 -1.191406 31.148438 -0.828125 30.234375 -0.515625 C 29.328125 -0.203125 28.132812 0.078125 26.65625 0.328125 C 25.1875 0.578125 23.671875 0.703125 22.109375 0.703125 C 18.503906 0.703125 15.082031 -0.179688 11.84375 -1.953125 C 8.613281 -3.722656 6.007812 -6.160156 4.03125 -9.265625 C 2.0625 -12.367188 1.078125 -15.722656 1.078125 -19.328125 C 1.078125 -22.054688 1.65625 -24.675781 2.8125 -27.1875 C 3.976562 -29.695312 5.523438 -31.84375 7.453125 -33.625 C 9.378906 -35.414062 11.628906 -36.84375 14.203125 -37.90625 C 16.773438 -38.96875 19.410156 -39.5 22.109375 -39.5 C 24.609375 -39.5 26.914062 -39.203125 29.03125 -38.609375 C 31.15625 -38.015625 32.65625 -37.421875 33.53125 -36.828125 L 34.84375 -35.9375 L 31.09375 -28.40625 C 30.875 -28.59375 30.539062 -28.816406 30.09375 -29.078125 C 29.65625 -29.347656 28.773438 -29.703125 27.453125 -30.140625 C 26.140625 -30.585938 24.8125 -30.8125 23.46875 -30.8125 C 21.332031 -30.8125 19.414062 -30.460938 17.71875 -29.765625 C 16.03125 -29.078125 14.691406 -28.164062 13.703125 -27.03125 C 12.722656 -25.90625 11.972656 -24.691406 11.453125 -23.390625 C 10.929688 -22.097656 10.671875 -20.773438 10.671875 -19.421875 C 10.671875 -16.472656 11.773438 -13.832031 13.984375 -11.5 C 16.203125 -9.164062 19.363281 -8 23.46875 -8 Z M 23.46875 -8 "/></g></g></g><g fill="#000000" fill-opacity="1"><g transform="translate(534.8628, 132.428527)"><g><path d="M 1.078125 -19.421875 C 1.078125 -25.035156 2.988281 -29.785156 6.8125 -33.671875 C 10.644531 -37.554688 15.253906 -39.5 20.640625 -39.5 C 26.066406 -39.5 30.675781 -37.5625 34.46875 -33.6875 C 38.269531 -29.820312 40.171875 -25.066406 40.171875 -19.421875 C 40.171875 -13.742188 38.300781 -8.96875 34.5625 -5.09375 C 30.832031 -1.226562 26.191406 0.703125 20.640625 0.703125 C 14.972656 0.703125 10.296875 -1.210938 6.609375 -5.046875 C 2.921875 -8.890625 1.078125 -13.679688 1.078125 -19.421875 Z M 10.625 -19.421875 C 10.625 -17.378906 10.9375 -15.519531 11.5625 -13.84375 C 12.195312 -12.164062 13.296875 -10.75 14.859375 -9.59375 C 16.429688 -8.4375 18.359375 -7.859375 20.640625 -7.859375 C 23.929688 -7.859375 26.414062 -8.984375 28.09375 -11.234375 C 29.78125 -13.492188 30.625 -16.222656 30.625 -19.421875 C 30.625 -22.585938 29.765625 -25.304688 28.046875 -27.578125 C 26.335938 -29.859375 23.867188 -31 20.640625 -31 C 17.441406 -31 14.972656 -29.859375 13.234375 -27.578125 C 11.492188 -25.304688 10.625 -22.585938 10.625 -19.421875 Z M 10.625 -19.421875 "/></g></g></g><g fill="#000000" fill-opacity="1"><g transform="translate(576.110552, 132.428527)"><g><path d="M 34.890625 0 L 33.0625 -23 L 32.828125 -23 L 24.875 -0.234375 L 19.609375 -0.234375 L 11.65625 -23 L 11.421875 -23 L 9.59375 0 L 0.75 0 L 4.234375 -38.796875 L 13.640625 -38.796875 L 22.25 -16.40625 L 30.859375 -38.796875 L 40.265625 -38.796875 L 43.734375 0 Z M 34.890625 0 "/></g></g></g><g fill="#000000" fill-opacity="1"><g transform="translate(620.603573, 132.428527)"><g><path d="M 25.015625 -38.796875 L 25.015625 -31.046875 L 11.65625 -31.046875 L 11.65625 -23.328125 L 24.453125 -23.328125 L 24.453125 -15.5625 L 11.65625 -15.5625 L 11.65625 -7.765625 L 25.015625 -7.765625 L 25.015625 0 L 2.828125 0 L 2.828125 -38.796875 Z M 25.015625 -38.796875 "/></g></g></g><g fill="#000000" fill-opacity="1"><g transform="translate(647.882597, 132.428527)"><g/></g></g><g fill="#000000" fill-opacity="1"><g transform="translate(660.722555, 132.428527)"><g><path d="M 0.375 -31.046875 L 0.375 -38.796875 L 27.65625 -38.796875 L 27.65625 -31.046875 L 18.4375 -31.046875 L 18.4375 0 L 9.59375 0 L 9.59375 -31.046875 Z M 0.375 -31.046875 "/></g></g></g><g fill="#000000" fill-opacity="1"><g transform="translate(688.754111, 132.428527)"><g><path d="M 1.078125 -19.421875 C 1.078125 -25.035156 2.988281 -29.785156 6.8125 -33.671875 C 10.644531 -37.554688 15.253906 -39.5 20.640625 -39.5 C 26.066406 -39.5 30.675781 -37.5625 34.46875 -33.6875 C 38.269531 -29.820312 40.171875 -25.066406 40.171875 -19.421875 C 40.171875 -13.742188 38.300781 -8.96875 34.5625 -5.09375 C 30.832031 -1.226562 26.191406 0.703125 20.640625 0.703125 C 14.972656 0.703125 10.296875 -1.210938 6.609375 -5.046875 C 2.921875 -8.890625 1.078125 -13.679688 1.078125 -19.421875 Z M 10.625 -19.421875 C 10.625 -17.378906 10.9375 -15.519531 11.5625 -13.84375 C 12.195312 -12.164062 13.296875 -10.75 14.859375 -9.59375 C 16.429688 -8.4375 18.359375 -7.859375 20.640625 -7.859375 C 23.929688 -7.859375 26.414062 -8.984375 28.09375 -11.234375 C 29.78125 -13.492188 30.625 -16.222656 30.625 -19.421875 C 30.625 -22.585938 29.765625 -25.304688 28.046875 -27.578125 C 26.335938 -29.859375 23.867188 -31 20.640625 -31 C 17.441406 -31 14.972656 -29.859375 13.234375 -27.578125 C 11.492188 -25.304688 10.625 -22.585938 10.625 -19.421875 Z M 10.625 -19.421875 "/></g></g></g><g fill="#000000" fill-opacity="1"><g transform="translate(392.870804, 184.828715)"><g><path d="M 2.828125 -38.796875 L 14.0625 -38.796875 C 19.457031 -38.796875 24.066406 -36.953125 27.890625 -33.265625 C 31.710938 -29.585938 33.625 -24.972656 33.625 -19.421875 C 33.625 -13.835938 31.71875 -9.203125 27.90625 -5.515625 C 24.101562 -1.835938 19.488281 0 14.0625 0 L 2.828125 0 Z M 11.65625 -7.90625 L 13.03125 -7.90625 C 16.257812 -7.90625 18.898438 -8.992188 20.953125 -11.171875 C 23.003906 -13.347656 24.046875 -16.082031 24.078125 -19.375 C 24.078125 -22.664062 23.050781 -25.410156 21 -27.609375 C 18.945312 -29.804688 16.289062 -30.90625 13.03125 -30.90625 L 11.65625 -30.90625 Z M 11.65625 -7.90625 "/></g></g></g><g fill="#000000" fill-opacity="1"><g transform="translate(427.581006, 184.828715)"><g><path d="M 11.65625 -38.796875 L 11.65625 0 L 2.828125 0 L 2.828125 -38.796875 Z M 11.65625 -38.796875 "/></g></g></g><g fill="#000000" fill-opacity="1"><g transform="translate(442.067105, 184.828715)"><g><path d="M 17.125 -39.5 C 19.21875 -39.5 21.269531 -39.191406 23.28125 -38.578125 C 25.289062 -37.972656 26.78125 -37.375 27.75 -36.78125 L 29.15625 -35.84375 L 25.578125 -28.78125 C 25.296875 -28.96875 24.90625 -29.207031 24.40625 -29.5 C 23.90625 -29.800781 22.960938 -30.203125 21.578125 -30.703125 C 20.203125 -31.210938 18.921875 -31.46875 17.734375 -31.46875 C 16.253906 -31.46875 15.113281 -31.148438 14.3125 -30.515625 C 13.519531 -29.890625 13.125 -29.046875 13.125 -27.984375 C 13.125 -27.453125 13.3125 -26.957031 13.6875 -26.5 C 14.0625 -26.039062 14.703125 -25.550781 15.609375 -25.03125 C 16.523438 -24.519531 17.328125 -24.109375 18.015625 -23.796875 C 18.703125 -23.484375 19.769531 -23.015625 21.21875 -22.390625 C 23.71875 -21.316406 25.851562 -19.863281 27.625 -18.03125 C 29.394531 -16.195312 30.28125 -14.125 30.28125 -11.8125 C 30.28125 -9.582031 29.878906 -7.632812 29.078125 -5.96875 C 28.285156 -4.3125 27.191406 -3.007812 25.796875 -2.0625 C 24.398438 -1.125 22.851562 -0.429688 21.15625 0.015625 C 19.46875 0.472656 17.632812 0.703125 15.65625 0.703125 C 13.96875 0.703125 12.304688 0.53125 10.671875 0.1875 C 9.046875 -0.15625 7.679688 -0.582031 6.578125 -1.09375 C 5.484375 -1.613281 4.492188 -2.125 3.609375 -2.625 C 2.734375 -3.132812 2.09375 -3.5625 1.6875 -3.90625 L 1.078125 -4.421875 L 5.5 -11.859375 C 5.875 -11.535156 6.390625 -11.128906 7.046875 -10.640625 C 7.710938 -10.160156 8.882812 -9.515625 10.5625 -8.703125 C 12.238281 -7.890625 13.71875 -7.484375 15 -7.484375 C 18.726562 -7.484375 20.59375 -8.75 20.59375 -11.28125 C 20.59375 -11.820312 20.457031 -12.316406 20.1875 -12.765625 C 19.925781 -13.222656 19.457031 -13.675781 18.78125 -14.125 C 18.113281 -14.582031 17.519531 -14.941406 17 -15.203125 C 16.476562 -15.472656 15.628906 -15.882812 14.453125 -16.4375 C 13.285156 -16.988281 12.421875 -17.40625 11.859375 -17.6875 C 9.503906 -18.84375 7.679688 -20.289062 6.390625 -22.03125 C 5.109375 -23.769531 4.46875 -25.644531 4.46875 -27.65625 C 4.46875 -31.132812 5.753906 -33.976562 8.328125 -36.1875 C 10.898438 -38.394531 13.832031 -39.5 17.125 -39.5 Z M 17.125 -39.5 "/></g></g></g><g fill="#000000" fill-opacity="1"><g transform="translate(473.673144, 184.828715)"><g><path d="M 0.375 -31.046875 L 0.375 -38.796875 L 27.65625 -38.796875 L 27.65625 -31.046875 L 18.4375 -31.046875 L 18.4375 0 L 9.59375 0 L 9.59375 -31.046875 Z M 0.375 -31.046875 "/></g></g></g><g fill="#000000" fill-opacity="1"><g transform="translate(501.704692, 184.828715)"><g><path d="M 11.65625 -38.796875 L 11.65625 0 L 2.828125 0 L 2.828125 -38.796875 Z M 11.65625 -38.796875 "/></g></g></g><g fill="#000000" fill-opacity="1"><g transform="translate(516.19079, 184.828715)"><g><path d="M 11.65625 -38.796875 L 11.65625 -7.765625 L 25.015625 -7.765625 L 25.015625 0 L 2.828125 0 L 2.828125 -38.796875 Z M 11.65625 -38.796875 "/></g></g></g><g fill="#000000" fill-opacity="1"><g transform="translate(542.764316, 184.828715)"><g><path d="M 11.65625 -38.796875 L 11.65625 -7.765625 L 25.015625 -7.765625 L 25.015625 0 L 2.828125 0 L 2.828125 -38.796875 Z M 11.65625 -38.796875 "/></g></g></g><g fill="#000000" fill-opacity="1"><g transform="translate(569.337841, 184.828715)"><g><path d="M 25.015625 -38.796875 L 25.015625 -31.046875 L 11.65625 -31.046875 L 11.65625 -23.328125 L 24.453125 -23.328125 L 24.453125 -15.5625 L 11.65625 -15.5625 L 11.65625 -7.765625 L 25.015625 -7.765625 L 25.015625 0 L 2.828125 0 L 2.828125 -38.796875 Z M 25.015625 -38.796875 "/></g></g></g><g fill="#000000" fill-opacity="1"><g transform="translate(596.616866, 184.828715)"><g><path d="M 2.828125 -38.796875 L 14.0625 -38.796875 C 19.457031 -38.796875 24.066406 -36.953125 27.890625 -33.265625 C 31.710938 -29.585938 33.625 -24.972656 33.625 -19.421875 C 33.625 -13.835938 31.71875 -9.203125 27.90625 -5.515625 C 24.101562 -1.835938 19.488281 0 14.0625 0 L 2.828125 0 Z M 11.65625 -7.90625 L 13.03125 -7.90625 C 16.257812 -7.90625 18.898438 -8.992188 20.953125 -11.171875 C 23.003906 -13.347656 24.046875 -16.082031 24.078125 -19.375 C 24.078125 -22.664062 23.050781 -25.410156 21 -27.609375 C 18.945312 -29.804688 16.289062 -30.90625 13.03125 -30.90625 L 11.65625 -30.90625 Z M 11.65625 -7.90625 "/></g></g></g><g clip-path="url(#a3ba29c771)"><g clip-path="url(#52618781c1)"><g clip-path="url(#64cece21f6)"><path fill="#ff3de3" d="M 848.636719 -169.589844 C 852.503906 -161.808594 855.703125 -153.710938 858.1875 -145.386719 C 862.128906 -132.585938 867.96875 -120.46875 875.429688 -109.371094 C 882.433594 -99.222656 890.972656 -90.523438 900.082031 -82.335938 C 906.71875 -76.363281 914.6875 -74.207031 923.203125 -74.3125 C 934.042969 -74.480469 944.792969 -75.078125 955.589844 -75.8125 C 965.394531 -76.421875 975.113281 -77.933594 984.898438 -77.125 C 998.605469 -76.207031 1011.886719 -71.789062 1023.46875 -64.320312 C 1031.910156 -58.75 1040.445312 -53.457031 1048.980469 -47.929688 C 1055.125 -43.953125 1060.066406 -38.574219 1064.480469 -32.824219 C 1075.261719 -18.738281 1082.710938 -3.28125 1085.824219 14.382812 C 1089.507812 35.179688 1091.4375 56.238281 1091.570312 77.457031 C 1091.632812 93.179688 1087.875 108.277344 1082.792969 123.070312 C 1080.125 131.175781 1076.46875 138.933594 1071.828125 146.109375 C 1066.554688 154.175781 1059.507812 160.984375 1051.113281 165.734375 C 1042.097656 170.902344 1032.992188 175.644531 1022.609375 177.238281 C 1002.410156 180.390625 983.382812 177.214844 966.953125 164.558594 C 960.679688 159.824219 955.128906 153.914062 949.820312 148.007812 C 938.027344 134.996094 924.269531 123.992188 908.964844 115.378906 C 897.464844 108.8125 884.886719 104.878906 872.113281 101.277344 C 858.164062 97.417969 844.15625 93.941406 830.453125 89.375 C 810.71875 82.78125 791.722656 74.300781 774.714844 62.15625 C 765.019531 55.191406 756.039062 47.523438 749.125 37.804688 C 737.105469 20.90625 732.019531 2.3125 736.660156 -18.265625 C 739.1875 -29.828125 742.277344 -41.195312 744.992188 -52.617188 C 747.550781 -62.902344 750.011719 -73.140625 750.015625 -83.84375 C 750.28125 -95.964844 747.324219 -107.941406 741.605469 -118.589844 C 737.175781 -126.566406 732.363281 -134.359375 727.789062 -142.144531 C 722.75 -150.890625 718.382812 -159.953125 716.0625 -169.886719 C 711.8125 -187.472656 717.3125 -201.882812 730.394531 -213.710938 C 742.46875 -224.46875 757.058594 -229.03125 772.828125 -230.167969 C 780.550781 -230.714844 788.300781 -229.980469 795.699219 -228.023438 C 805.835938 -225.265625 813.796875 -219.226562 820.929688 -211.730469 C 828.8125 -203.417969 834.921875 -193.902344 840.511719 -184.011719 Z M 848.636719 -169.589844 " fill-opacity="1" fill-rule="nonzero"/></g></g></g></svg>