<?xml version="1.0" encoding="UTF-8"?>
<svg id="Layer_1" data-name="Layer 1" xmlns="http://www.w3.org/2000/svg" viewBox="0 0 243 75">
  <defs>
    <style>
      .cls-1 {
        fill: #e7f6fd;
      }

      .cls-2 {
        fill: #fff;
      }

      .cls-3 {
        fill: #ff3de3;
      }

      .cls-4 {
        fill: #272428;
      }

      .cls-5 {
        font-family: VDL-V7Gothic-ExtraBold-83pv-RKSJ-H, VDL-V7Gothic;
        font-size: 38.79px;
        font-weight: 700;
      }
    </style>
  </defs>
  <g>
    <g>
      <path class="cls-1" d="M35.39,59.46l-3.19-22.75c-.14-1.13,.01-2.29,.44-3.37l6.63-16.58-4.27-1.37-4.29-1.37-6.63,16.58c-.43,1.08-1.14,2.06-2.05,2.86L3.45,49.23c-1.42,1.24-.89,3.37,.97,3.96l13.72,4.39,13.7,4.39c1.86,.61,3.77-.75,3.55-2.51Z"/>
      <path class="cls-4" d="M31.7,62.32L4.28,53.54c-1.01-.32-1.74-1.07-1.98-2-.24-.93,.09-1.88,.86-2.55l18.59-15.78c.86-.75,1.54-1.7,1.94-2.72l6.78-16.94,9.33,2.99-6.77,16.92c-.41,1.02-.56,2.13-.42,3.22l3.19,22.74c.11,.95-.31,1.87-1.15,2.47-.85,.6-1.95,.76-2.95,.44Zm-.74-47.84l-6.49,16.24c-.45,1.12-1.19,2.16-2.15,2.99L3.72,49.5c-.56,.48-.79,1.19-.62,1.89,.17,.69,.7,1.24,1.45,1.48l27.42,8.78c.74,.24,1.55,.11,2.17-.32,.62-.43,.94-1.11,.84-1.82l-3.19-22.74c-.15-1.19,.02-2.42,.46-3.54l6.49-16.24-7.78-2.49Z"/>
    </g>
    <path class="cls-3" d="M34.19,59.59l-2.04-14.6-15.93-5.1-11.93,10.13c-.36,.33-.52,.76-.4,1.21,.12,.45,.46,.79,.94,.95l27.42,8.78c.48,.15,.99,.08,1.4-.2,.41-.28,.61-.7,.55-1.16Z"/>
    <g>
      <path class="cls-1" d="M40.11,15.3l-8.99-2.88c-.95-.3-2,.14-2.34,.99h0c-.34,.85,.16,1.79,1.1,2.09l8.99,2.88c.95,.3,2-.14,2.34-.99h0c.34-.86-.16-1.79-1.1-2.09Z"/>
      <path class="cls-4" d="M38.75,18.7l-8.99-2.88c-1.15-.37-1.77-1.51-1.35-2.55s1.68-1.58,2.85-1.21l8.99,2.88c1.15,.37,1.77,1.51,1.35,2.55s-1.7,1.57-2.85,1.21Zm-7.77-5.95c-.73-.23-1.56,.11-1.82,.77s.12,1.39,.86,1.63l8.99,2.88c.73,.23,1.56-.11,1.82-.77s-.12-1.39-.86-1.63l-8.99-2.88Z"/>
    </g>
  </g>
  <ellipse class="cls-3" cx="24.28" cy="35.06" rx=".6" ry=".72" transform="translate(-17.8 41.94) rotate(-64.59)"/>
  <ellipse class="cls-2" cx="26.09" cy="47.7" rx="1.16" ry="1.04"/>
  <ellipse class="cls-2" cx="29.27" cy="50.85" rx="1.08" ry=".97"/>
  <ellipse class="cls-2" cx="18.5" cy="47.77" rx="2.63" ry="2.36"/>
  <ellipse class="cls-3" cx="40.03" cy="9.5" rx=".78" ry=".69" transform="translate(-1.07 7.69) rotate(-10.83)"/>
  <ellipse class="cls-3" cx="31.61" cy="20.68" rx=".97" ry="1.08" transform="translate(9.37 51.21) rotate(-87.13)"/>
  <ellipse class="cls-3" cx="27.97" cy="28.87" rx=".97" ry="1.08" transform="translate(-2.5 55.09) rotate(-86.62)"/>
  <ellipse class="cls-3" cx="31.43" cy="26.17" rx=".69" ry=".78" transform="translate(-1.89 49.88) rotate(-75.2)"/>
  <ellipse class="cls-3" cx="37.78" cy="12.73" rx=".76" ry=".85" transform="translate(22.44 49.53) rotate(-85.98)"/>
  <ellipse class="cls-3" cx="33.84" cy="10.9" rx=".63" ry=".54" transform="translate(-1.65 12.92) rotate(-21.11)"/>
  <ellipse class="cls-2" cx="23.51" cy="50.25" rx=".91" ry=".82"/>
  <ellipse class="cls-3" cx="35.18" cy="22.41" rx=".62" ry=".55" transform="translate(-3.59 7.01) rotate(-10.83)"/>
  <ellipse class="cls-3" cx="37.46" cy="6.93" rx=".62" ry=".48" transform="translate(-.6 5.39) rotate(-8.17)"/>
  <ellipse class="cls-3" cx="28.68" cy="32.97" rx=".69" ry=".77" transform="translate(-6.73 58.57) rotate(-84.85)"/>
  <ellipse class="cls-3" cx="27.48" cy="38.23" rx=".62" ry=".84" transform="translate(-19.59 39.6) rotate(-55.96)"/>
  <ellipse class="cls-3" cx="36.24" cy="9.41" rx=".7" ry=".62" transform="translate(-1.11 6.85) rotate(-10.64)"/>
  <text class="cls-5" transform="translate(53.36 54.67) scale(1.12 1)"><tspan class="cls-1" x="0" y="0">Distilled</tspan><tspan class="cls-3" x="156.01" y="0">.</tspan></text>
  <ellipse class="cls-3" cx="30.94" cy="30.41" rx=".47" ry=".56" transform="translate(-9.8 45.31) rotate(-64.59)"/>
  <ellipse class="cls-3" cx="34.21" cy="7.38" rx=".6" ry=".72" transform="translate(12.87 35.12) rotate(-64.59)"/>
</svg>